<?xml version="1.0" encoding="UTF-8" standalone="no"?>
<!DOCTYPE svg PUBLIC "-//W3C//DTD SVG 1.1//EN" "http://www.w3.org/Graphics/SVG/1.1/DTD/svg11.dtd">
<svg version="1.1" xmlns="http://www.w3.org/2000/svg" xmlns:xlink="http://www.w3.org/1999/xlink" preserveAspectRatio="xMidYMid meet" viewBox="0 0 640 640" width="50" height="50"><defs><path d="M416.09 184.79C335.3 267.72 250.35 374.23 179.74 481.15C175.8 487.11 173.45 490.17 173.01 490.02C172.57 489.87 133.79 466.28 86.74 437.53C39.69 408.79 0.86 385.1 0.42 384.85C-0.18 384.55 -0.13 384.75 0.53 385.65C5.9 392.66 203.41 639.95 203.68 640C203.84 640 205.54 636.69 207.4 632.59C274.5 486.46 340.06 370.48 417.62 260.66C480.5 171.67 553.51 85.53 631.18 8.86C636.16 4.01 640.11 0 640 0C639.89 0 636.33 2.15 632.17 4.81C561.62 49.28 490.25 108.77 416.09 184.79Z" id="agbvCGFyW"></path></defs><g><g><g><use xlink:href="#agbvCGFyW" opacity="1" fill="#00e0c2" fill-opacity="1"></use><g><use xlink:href="#agbvCGFyW" opacity="1" fill-opacity="0" stroke="#000000" stroke-width="1" stroke-opacity="0"></use></g></g></g></g></svg>