<?xml version="1.0" encoding="UTF-8" standalone="no"?>
<!DOCTYPE svg PUBLIC "-//W3C//DTD SVG 1.1//EN" "http://www.w3.org/Graphics/SVG/1.1/DTD/svg11.dtd">
<svg version="1.1" xmlns="http://www.w3.org/2000/svg" xmlns:xlink="http://www.w3.org/1999/xlink" preserveAspectRatio="xMidYMid meet" viewBox="0 0 640 640" width="50" height="50"><defs><path d="M323.56 36.96L324.82 36.97L326.11 36.99L327.42 37.01L328.75 37.03L330.1 37.06L331.47 37.09L332.84 37.13L334.22 37.16L335.6 37.21L336.98 37.25L338.35 37.3L339.72 37.35L341.07 37.4L342.41 37.46L343.72 37.52L345.02 37.58L346.28 37.65L347.52 37.71L348.72 37.78L349.88 37.85L351 37.92L352.07 37.99L353.1 38.07L354.07 38.15L354.98 38.22L355.84 38.3L356.63 38.38L357.35 38.46L358 38.54L362.17 39.15L366.31 39.83L370.43 40.57L374.53 41.37L378.59 42.24L382.63 43.18L386.64 44.18L390.63 45.24L394.58 46.37L398.51 47.57L402.41 48.82L406.27 50.15L410.11 51.53L413.92 52.98L417.7 54.49L421.45 56.07L425.16 57.71L428.85 59.41L432.5 61.17L436.12 63L439.71 64.89L443.27 66.84L446.79 68.85L450.28 70.92L453.73 73.06L457.15 75.26L460.54 77.51L463.89 79.83L467.21 82.21L470.49 84.65L473.73 87.15L476.94 89.71L480.11 92.33L483.25 95.01L486.35 97.75L489.41 100.55L492.43 103.41L495.41 106.33L498.36 109.3L501.26 112.34L504.21 115.52L507.09 118.75L509.91 122.01L512.66 125.33L515.35 128.68L517.98 132.07L520.54 135.5L523.04 138.98L525.47 142.49L527.84 146.04L530.14 149.63L532.38 153.26L534.55 156.93L536.66 160.63L538.7 164.37L540.68 168.15L542.59 171.96L544.43 175.81L546.21 179.7L547.92 183.62L549.56 187.57L551.14 191.56L552.65 195.58L554.09 199.64L555.47 203.73L556.77 207.85L558.01 212L559.18 216.18L560.29 220.4L561.32 224.64L562.29 228.92L563.18 233.22L564.01 237.56L564.77 241.92L565.46 246.31L566.08 250.73L566.63 255.18L567.12 259.65L567.53 264.15L567.87 268.68L567.98 270.4L568.07 272.15L568.15 273.92L568.21 275.71L568.26 277.52L568.29 279.35L568.3 281.2L568.3 283.06L568.28 284.94L568.24 286.84L568.19 288.75L568.13 290.67L568.05 292.61L567.95 294.55L567.84 296.5L567.72 298.46L567.58 300.43L567.43 302.4L567.26 304.38L567.07 306.36L566.88 308.34L566.67 310.33L566.44 312.31L566.2 314.29L565.95 316.27L565.68 318.24L565.41 320.21L565.11 322.17L564.81 324.12L564.49 326.07L564.16 328.01L563.81 329.93L563.45 331.84L563.08 333.74L562.7 335.63L562.31 337.5L561.9 339.35L561.48 341.19L561.05 343L560.61 344.8L560.13 346.67L559.63 348.55L559.11 350.44L558.57 352.34L558.01 354.25L557.44 356.17L556.84 358.1L556.23 360.03L555.6 361.97L554.96 363.91L554.3 365.86L553.62 367.81L552.93 369.76L552.23 371.7L551.51 373.65L550.78 375.6L550.03 377.54L549.27 379.47L548.5 381.4L547.72 383.32L546.93 385.24L546.12 387.14L545.31 389.04L544.48 390.92L543.65 392.79L542.8 394.65L541.95 396.49L541.09 398.32L540.22 400.12L539.35 401.92L538.47 403.69L537.58 405.44L536.68 407.17L535.78 408.88L534.88 410.56L533.97 412.22L533.05 413.86L532.14 415.46L531.22 417.04L530.29 418.59L527.41 423.25L524.45 427.83L521.4 432.33L518.26 436.74L515.04 441.06L511.73 445.3L508.35 449.46L504.89 453.52L501.34 457.5L497.72 461.39L494.02 465.18L490.25 468.89L486.4 472.5L482.49 476.03L478.49 479.45L474.43 482.79L470.3 486.03L466.1 489.17L461.84 492.22L457.51 495.16L453.11 498.01L448.65 500.77L444.13 503.42L439.55 505.97L434.91 508.41L430.21 510.76L425.46 513L420.65 515.14L415.78 517.18L410.86 519.1L405.89 520.92L400.86 522.64L395.79 524.24L390.67 525.74L385.5 527.13L380.28 528.4L375.02 529.57L369.72 530.62L364.37 531.56L358.98 532.38L358.04 532.51L357.06 532.64L356.03 532.76L354.96 532.88L353.85 532.99L352.71 533.1L351.53 533.2L350.31 533.3L349.07 533.39L347.8 533.48L346.51 533.56L345.19 533.64L343.86 533.71L342.5 533.78L341.13 533.84L339.75 533.9L338.36 533.95L336.96 534L335.56 534.04L334.15 534.08L332.75 534.11L331.34 534.13L329.94 534.15L328.54 534.17L327.16 534.18L325.79 534.18L324.43 534.18L323.09 534.17L321.76 534.15L320.46 534.14L319.18 534.11L317.93 534.08L316.71 534.04L315.52 534L314.36 533.95L313.24 533.9L312.15 533.84L311.11 533.77L310.11 533.7L309.16 533.62L306.81 533.39L304.46 533.14L302.13 532.86L299.8 532.57L297.48 532.25L295.17 531.92L292.86 531.56L290.56 531.18L288.26 530.78L285.98 530.36L283.7 529.92L281.43 529.46L279.16 528.98L276.9 528.47L274.65 527.94L272.41 527.4L270.17 526.83L267.94 526.24L265.72 525.63L263.5 525L261.29 524.34L259.09 523.67L256.89 522.97L254.71 522.26L252.52 521.52L250.35 520.76L248.18 519.98L246.02 519.18L243.87 518.35L241.72 517.51L239.58 516.64L237.45 515.76L235.32 514.85L233.2 513.92L231.09 512.97L228.98 511.99L226.88 511L224.79 509.98L222.7 508.95L220.63 507.89L220.38 507.76L220.14 507.63L219.9 507.51L219.65 507.39L219.41 507.27L219.17 507.15L218.93 507.03L218.7 506.92L218.46 506.8L218.23 506.69L218 506.59L217.77 506.48L217.54 506.38L217.32 506.28L217.1 506.18L216.89 506.09L216.68 505.99L216.47 505.9L216.27 505.82L216.07 505.74L215.88 505.66L215.69 505.58L215.51 505.51L215.33 505.44L215.16 505.37L214.99 505.31L214.83 505.25L214.68 505.19L214.53 505.14L214.4 505.1L214.26 505.05L214.14 505.01L214.02 504.98L213.91 504.95L213.81 504.92L213.72 504.9L213.64 504.89L213.56 504.87L213.5 504.87L213.44 504.86L213.36 504.87L213.24 504.89L213.07 504.93L212.86 504.98L212.61 505.05L212.32 505.12L211.99 505.22L211.62 505.32L211.21 505.44L210.76 505.57L210.28 505.71L209.77 505.87L209.22 506.03L208.63 506.21L208.02 506.4L207.37 506.59L206.69 506.8L205.98 507.02L205.25 507.25L204.48 507.49L203.69 507.74L202.88 507.99L202.04 508.26L201.17 508.53L200.29 508.81L199.38 509.1L198.45 509.4L197.5 509.7L196.53 510.01L195.54 510.32L194.53 510.65L193.51 510.97L192.48 511.31L191.43 511.65L190.36 511.99L189.28 512.34L188.19 512.69L187.09 513.05L185.98 513.41L184.87 513.78L182.65 514.51L180.3 515.29L177.82 516.1L175.22 516.96L172.52 517.85L169.72 518.77L166.83 519.72L163.86 520.7L160.82 521.7L157.72 522.71L154.58 523.74L151.39 524.79L148.18 525.84L144.94 526.9L141.69 527.97L138.44 529.03L135.21 530.09L131.99 531.15L128.79 532.19L125.64 533.22L122.53 534.24L119.49 535.24L116.51 536.21L113.6 537.16L110.78 538.08L108.06 538.97L105.45 539.83L102.95 540.64L100.57 541.42L98.34 542.15L96.24 542.83L94.3 543.47L92.53 544.05L90.93 544.57L89.51 545.03L88.29 545.43L87.27 545.76L86.46 546.03L85.88 546.22L85.52 546.33L85.4 546.37L85.28 546.41L85.16 546.44L85.05 546.47L84.95 546.5L84.85 546.52L84.76 546.54L84.67 546.56L84.59 546.57L84.51 546.58L84.44 546.59L84.38 546.59L84.32 546.58L84.26 546.58L84.21 546.56L84.16 546.54L84.12 546.52L84.08 546.49L84.05 546.46L84.02 546.42L84 546.38L83.98 546.32L83.96 546.27L83.95 546.2L83.94 546.14L83.93 546.06L83.93 545.98L83.93 545.89L83.93 545.79L83.94 545.69L83.95 545.58L83.96 545.46L83.98 545.34L84 545.2L84.02 545.06L84.04 544.92L84.07 544.76L84.1 544.59L84.13 544.42L84.16 544.24L84.19 544.06L84.22 543.89L84.24 543.73L84.26 543.58L84.27 543.43L84.29 543.29L84.3 543.16L84.31 543.03L84.31 542.91L84.32 542.79L84.31 542.68L84.31 542.57L84.3 542.47L84.29 542.38L84.27 542.28L84.25 542.2L84.23 542.11L84.2 542.03L84.17 541.96L84.13 541.89L84.09 541.82L84.05 541.75L84 541.68L83.95 541.62L83.89 541.56L83.82 541.5L83.75 541.45L83.68 541.39L83.6 541.34L83.51 541.29L83.42 541.23L83.33 541.18L83.23 541.13L83.12 541.08L83.01 541.03L82.89 540.97L82.76 540.92L82.63 540.87L82.49 540.81L82.26 540.72L82.17 540.68L82.08 540.64L81.99 540.6L81.91 540.55L81.82 540.51L81.74 540.46L81.66 540.41L81.58 540.37L81.5 540.31L81.42 540.26L81.34 540.21L81.27 540.16L81.19 540.1L81.12 540.04L81.05 539.99L80.99 539.93L80.92 539.87L80.86 539.81L80.8 539.75L80.74 539.69L80.68 539.63L80.63 539.57L80.58 539.51L80.53 539.45L80.48 539.39L80.44 539.33L80.4 539.27L80.36 539.21L80.33 539.15L80.3 539.09L80.27 539.03L80.24 538.97L80.22 538.91L80.2 538.86L80.18 538.8L80.17 538.74L80.16 538.69L80.16 538.63L80.16 538.58L80.17 538.49L80.19 538.35L80.24 538.15L80.31 537.9L80.39 537.59L80.49 537.23L80.61 536.82L80.74 536.36L80.89 535.85L81.06 535.29L81.24 534.68L81.44 534.04L81.65 533.34L81.88 532.61L82.12 531.83L82.37 531.01L82.64 530.15L82.92 529.25L83.21 528.32L83.52 527.35L83.84 526.35L84.17 525.31L84.51 524.24L84.86 523.14L85.22 522.01L85.59 520.85L85.97 519.66L86.37 518.45L86.76 517.21L87.17 515.94L87.59 514.65L88.01 513.35L88.45 512.02L88.88 510.67L89.33 509.3L89.78 507.91L90.24 506.51L90.7 505.1L91.17 503.67L91.65 502.23L92.12 500.77L92.61 499.28L93.11 497.75L93.61 496.2L94.13 494.63L94.65 493.02L95.18 491.4L95.72 489.75L96.26 488.09L96.81 486.41L97.36 484.72L97.92 483.01L98.48 481.3L99.04 479.58L99.6 477.85L100.17 476.11L100.74 474.38L101.3 472.65L101.87 470.91L102.43 469.19L102.99 467.47L103.55 465.76L104.11 464.06L104.66 462.37L105.2 460.7L105.74 459.04L106.28 457.4L106.81 455.79L107.33 454.2L107.84 452.63L108.34 451.09L108.84 449.58L109.32 448.11L109.79 446.66L110.25 445.25L110.7 443.88L111.14 442.55L111.56 441.26L111.97 440.02L112.36 438.82L121.66 410.37L117.66 402.39L116.61 400.25L115.58 398.09L114.57 395.91L113.57 393.7L112.59 391.48L111.62 389.24L110.67 386.98L109.73 384.7L108.81 382.41L107.9 380.11L107.02 377.79L106.15 375.47L105.3 373.13L104.46 370.78L103.65 368.43L102.85 366.07L102.07 363.7L101.32 361.33L100.58 358.96L99.86 356.58L99.16 354.2L98.49 351.82L97.83 349.45L97.2 347.07L96.59 344.7L96 342.33L95.43 339.97L94.89 337.62L94.37 335.27L93.87 332.93L93.4 330.61L92.95 328.29L92.53 325.99L92.13 323.7L91.76 321.42L91.41 319.16L91.09 316.92L90.8 314.69L90.53 312.49L90.29 310.3L90.12 308.68L89.97 307.03L89.83 305.35L89.69 303.66L89.57 301.95L89.46 300.22L89.37 298.48L89.28 296.72L89.2 294.95L89.13 293.17L89.08 291.38L89.03 289.58L89 287.78L88.97 285.97L88.96 284.16L88.96 282.34L88.96 280.53L88.98 278.71L89.01 276.9L89.05 275.09L89.1 273.29L89.16 271.5L89.23 269.71L89.31 267.93L89.4 266.17L89.5 264.42L89.61 262.68L89.73 260.96L89.86 259.25L90 257.57L90.15 255.9L90.31 254.26L90.48 252.64L90.66 251.05L90.85 249.48L91.05 247.94L91.26 246.43L91.48 244.95L91.71 243.51L91.95 242.09L92.28 240.24L92.61 238.41L92.95 236.59L93.3 234.79L93.66 233L94.03 231.23L94.4 229.47L94.79 227.72L95.18 225.99L95.58 224.27L95.99 222.56L96.41 220.87L96.84 219.18L97.28 217.51L97.72 215.84L98.18 214.18L98.65 212.54L99.13 210.9L99.62 209.26L100.12 207.64L100.63 206.02L101.15 204.41L101.68 202.8L102.22 201.2L102.78 199.6L103.34 198L103.92 196.41L104.51 194.82L105.11 193.23L105.73 191.65L106.36 190.06L107 188.48L107.65 186.89L108.31 185.3L108.99 183.72L109.68 182.13L110.39 180.54L111.11 178.94L111.84 177.34L112.59 175.74L113.99 172.82L115.42 169.92L116.89 167.05L118.4 164.19L119.94 161.36L121.52 158.55L123.14 155.76L124.79 153L126.48 150.25L128.2 147.54L129.96 144.84L131.75 142.17L133.58 139.53L135.44 136.91L137.33 134.31L139.26 131.74L141.22 129.19L143.22 126.67L145.25 124.18L147.31 121.71L149.4 119.27L151.53 116.86L153.69 114.48L155.88 112.12L158.1 109.79L160.36 107.49L162.64 105.21L164.96 102.97L167.3 100.75L169.68 98.57L172.09 96.41L174.53 94.28L176.99 92.19L179.49 90.12L182.01 88.09L184.57 86.08L187.15 84.11L189.76 82.17L192.4 80.26L195.07 78.38L197.63 76.64L200.22 74.93L202.84 73.24L205.49 71.6L208.17 69.98L210.88 68.4L213.62 66.85L216.39 65.34L219.18 63.86L221.99 62.41L224.83 61.01L227.69 59.63L230.57 58.3L233.47 57L236.39 55.73L239.33 54.5L242.28 53.32L245.26 52.16L248.24 51.05L251.24 49.98L254.26 48.94L257.29 47.94L260.32 46.99L263.37 46.07L266.43 45.19L269.49 44.36L272.56 43.57L275.64 42.81L278.72 42.1L281.8 41.43L284.89 40.81L287.98 40.22L291.07 39.68L294.16 39.19L297.25 38.74L300.34 38.33L303.42 37.96L306.5 37.65L309.57 37.37L312.63 37.15L313.34 37.1L314.11 37.07L314.95 37.03L315.85 37.01L316.81 36.99L317.82 36.97L318.88 36.96L319.99 36.95L321.15 36.95L322.34 36.95L323.56 36.96ZM323.26 89.67L320.08 89.78L316.9 89.96L313.71 90.18L310.53 90.47L307.34 90.81L304.16 91.2L300.98 91.65L297.8 92.15L294.63 92.71L291.46 93.32L288.3 93.98L285.15 94.7L282 95.47L278.87 96.29L275.75 97.17L272.64 98.09L269.54 99.07L266.46 100.1L263.39 101.18L260.34 102.31L257.31 103.5L254.29 104.73L251.3 106.01L248.33 107.35L245.38 108.73L242.45 110.16L239.55 111.64L236.68 113.17L233.83 114.74L231 116.37L228.21 118.04L225.45 119.76L222.72 121.53L220.02 123.34L217.9 124.81L215.81 126.3L213.73 127.82L211.68 129.36L209.64 130.93L207.63 132.53L205.64 134.15L203.67 135.79L201.72 137.46L199.79 139.15L197.89 140.86L196.01 142.6L194.15 144.36L192.31 146.15L190.5 147.95L188.71 149.78L186.94 151.63L185.2 153.5L183.49 155.39L181.79 157.3L180.13 159.24L178.48 161.19L176.87 163.16L175.28 165.16L173.71 167.17L172.17 169.2L170.66 171.25L169.17 173.32L167.71 175.4L166.28 177.51L164.87 179.63L163.49 181.77L162.14 183.92L160.82 186.09L159.53 188.28L158.26 190.49L157.03 192.71L155.82 194.94L154.64 197.19L153.49 199.46L153.08 200.3L152.68 201.12L152.29 201.93L151.91 202.72L151.54 203.5L151.18 204.28L150.83 205.04L150.48 205.79L150.14 206.53L149.81 207.27L149.49 208L149.17 208.72L148.86 209.44L148.55 210.15L148.25 210.86L147.96 211.56L147.67 212.27L147.39 212.97L147.11 213.67L146.84 214.37L146.57 215.07L146.3 215.78L146.04 216.49L145.78 217.2L145.52 217.91L145.26 218.63L145.01 219.36L144.76 220.09L144.51 220.83L144.26 221.58L144.01 222.33L143.77 223.1L143.52 223.88L143.27 224.67L143.03 225.47L142.78 226.28L142.53 227.11L142.28 227.96L142.03 228.82L141.77 229.69L140.67 233.78L139.66 237.91L138.75 242.07L137.93 246.26L137.21 250.47L136.58 254.71L136.05 258.97L135.6 263.25L135.26 267.54L135 271.85L134.84 276.16L134.76 280.49L134.78 284.82L134.89 289.16L135.09 293.49L135.38 297.83L135.76 302.16L136.23 306.48L136.79 310.79L137.43 315.09L138.17 319.38L138.99 323.64L139.9 327.89L140.9 332.12L141.98 336.32L143.15 340.49L144.4 344.63L145.74 348.74L147.16 352.82L148.67 356.85L150.26 360.85L151.94 364.8L153.7 368.71L155.54 372.57L157.47 376.38L159.47 380.13L161.56 383.83L163.73 387.47L165.98 391.05L168.31 394.56L168.46 394.78L168.6 394.99L168.74 395.21L168.88 395.42L169.02 395.63L169.15 395.85L169.28 396.06L169.41 396.27L169.54 396.48L169.66 396.69L169.78 396.89L169.89 397.1L170.01 397.3L170.12 397.5L170.23 397.7L170.33 397.9L170.43 398.09L170.53 398.29L170.62 398.47L170.71 398.66L170.8 398.84L170.88 399.02L170.96 399.2L171.03 399.37L171.1 399.54L171.17 399.71L171.23 399.87L171.29 400.03L171.34 400.18L171.39 400.33L171.44 400.47L171.48 400.61L171.51 400.75L171.55 400.88L171.57 401L171.6 401.12L171.61 401.23L171.63 401.34L171.63 401.44L171.64 401.54L171.63 401.66L171.6 401.83L171.55 402.06L171.49 402.34L171.41 402.67L171.32 403.04L171.2 403.47L171.08 403.94L170.93 404.46L170.77 405.02L170.6 405.63L170.41 406.28L170.21 406.97L169.99 407.7L169.77 408.47L169.52 409.28L169.27 410.12L169 411L168.72 411.92L168.43 412.86L168.13 413.84L167.82 414.85L167.49 415.89L167.16 416.96L166.82 418.06L166.47 419.18L166.1 420.33L165.73 421.5L165.36 422.7L164.97 423.92L164.58 425.15L164.17 426.41L163.77 427.69L163.35 428.98L162.93 430.29L162.5 431.61L162.07 432.95L161.64 434.3L161.19 435.67L160.75 437.04L160.3 438.4L159.86 439.76L159.43 441.1L158.99 442.42L158.57 443.73L158.15 445.02L157.74 446.29L157.33 447.54L156.93 448.77L156.54 449.98L156.16 451.16L155.78 452.33L155.42 453.46L155.06 454.57L154.71 455.66L154.37 456.71L154.04 457.74L153.73 458.73L153.42 459.69L153.12 460.62L152.84 461.52L152.56 462.38L152.3 463.2L152.06 463.99L151.82 464.74L151.6 465.45L151.39 466.12L151.2 466.74L151.02 467.33L150.85 467.87L150.7 468.36L150.57 468.81L150.45 469.21L150.34 469.56L150.26 469.87L150.19 470.12L150.14 470.32L150.1 470.47L150.09 470.56L150.09 470.6L150.12 470.6L150.21 470.59L150.36 470.55L150.56 470.5L150.82 470.42L151.13 470.34L151.49 470.23L151.9 470.1L152.35 469.96L152.86 469.81L153.41 469.64L154.01 469.45L154.66 469.25L155.34 469.03L156.07 468.8L156.84 468.55L157.65 468.3L158.5 468.02L159.38 467.74L160.3 467.44L161.26 467.14L162.25 466.82L163.28 466.48L164.33 466.14L165.42 465.79L166.54 465.43L167.68 465.06L168.86 464.68L170.05 464.29L171.28 463.89L172.52 463.48L173.8 463.07L175.09 462.65L176.4 462.22L177.73 461.78L179.08 461.34L180.45 460.89L181.83 460.44L183.23 459.98L184.64 459.52L186.05 459.06L187.45 458.6L188.84 458.14L190.21 457.7L191.57 457.25L192.91 456.82L194.24 456.39L195.54 455.97L196.83 455.55L198.09 455.15L199.33 454.75L200.55 454.36L201.75 453.97L202.92 453.6L204.06 453.24L205.17 452.88L206.25 452.54L207.31 452.21L208.33 451.88L209.31 451.57L210.27 451.27L211.19 450.99L212.07 450.71L212.91 450.45L213.72 450.2L214.48 449.96L215.21 449.74L215.89 449.53L216.53 449.34L217.12 449.16L217.67 449L218.17 448.85L218.62 448.72L219.02 448.61L219.37 448.51L219.67 448.43L219.92 448.36L220.11 448.32L220.24 448.29L220.32 448.28L220.38 448.28L220.44 448.28L220.51 448.29L220.58 448.3L220.65 448.32L220.72 448.33L220.8 448.35L220.88 448.38L220.96 448.4L221.04 448.43L221.13 448.46L221.21 448.49L221.3 448.52L221.4 448.56L221.49 448.6L221.58 448.64L221.68 448.69L221.78 448.73L221.88 448.78L221.98 448.83L222.08 448.88L222.18 448.94L222.28 448.99L222.39 449.05L222.49 449.11L222.59 449.17L222.7 449.23L222.8 449.29L222.91 449.36L223.01 449.42L223.12 449.49L223.22 449.56L223.33 449.63L223.43 449.7L223.53 449.77L223.63 449.84L223.73 449.91L223.83 449.99L223.93 450.06L224.03 450.14L224.36 450.38L224.72 450.64L225.11 450.91L225.54 451.19L225.99 451.49L226.47 451.8L226.98 452.12L227.51 452.45L228.07 452.8L228.65 453.15L229.25 453.51L229.87 453.88L230.51 454.26L231.16 454.64L231.83 455.03L232.52 455.42L233.21 455.82L233.92 456.22L234.64 456.62L235.37 457.03L236.1 457.43L236.84 457.84L237.59 458.25L238.34 458.65L239.09 459.05L239.84 459.45L240.59 459.85L241.34 460.24L242.08 460.63L242.82 461.01L243.56 461.38L244.28 461.75L245 462.11L245.71 462.46L246.4 462.8L247.09 463.12L247.75 463.44L248.41 463.75L249.04 464.04L249.66 464.32L251.86 465.3L254.06 466.24L256.27 467.16L258.48 468.04L260.69 468.9L262.91 469.73L265.13 470.53L267.35 471.3L269.58 472.04L271.81 472.76L274.05 473.44L276.28 474.1L278.53 474.73L280.78 475.32L283.03 475.89L285.29 476.44L287.55 476.95L289.82 477.43L292.09 477.89L294.37 478.31L296.65 478.71L298.94 479.08L301.23 479.43L303.54 479.74L305.84 480.02L308.16 480.28L310.48 480.51L312.8 480.71L315.14 480.88L317.48 481.02L319.82 481.14L322.18 481.23L324.54 481.28L326.91 481.32L329.28 481.32L331.67 481.29L334.06 481.24L336.46 481.16L338.87 481.05L341.29 480.91L348.12 480.35L354.89 479.54L361.6 478.49L368.22 477.2L374.77 475.68L381.24 473.93L387.62 471.96L393.91 469.77L400.11 467.37L406.2 464.75L412.19 461.93L418.07 458.91L423.84 455.68L429.49 452.27L435.01 448.66L440.41 444.87L445.68 440.89L450.82 436.74L455.81 432.42L460.66 427.92L465.37 423.26L469.92 418.44L474.31 413.47L478.54 408.34L482.6 403.07L486.49 397.65L490.21 392.09L493.75 386.4L497.11 380.57L500.27 374.62L503.25 368.55L506.02 362.36L508.6 356.05L510.97 349.63L513.13 343.11L515.07 336.49L516.8 329.77L518.3 322.95L519.58 316.05L520.62 309.06L520.74 308.04L520.86 306.97L520.98 305.86L521.09 304.7L521.19 303.51L521.28 302.27L521.37 301.01L521.45 299.71L521.53 298.39L521.6 297.04L521.66 295.66L521.71 294.26L521.76 292.84L521.8 291.41L521.84 289.96L521.87 288.5L521.89 287.03L521.91 285.56L521.92 284.08L521.92 282.59L521.92 281.11L521.91 279.63L521.89 278.16L521.87 276.69L521.84 275.24L521.8 273.8L521.76 272.37L521.71 270.96L521.66 269.58L521.6 268.21L521.53 266.87L521.45 265.56L521.37 264.28L521.28 263.03L521.19 261.81L521.09 260.64L520.98 259.5L520.86 258.41L520.74 257.36L520.62 256.36L520.33 254.3L520.03 252.26L519.7 250.22L519.36 248.19L518.99 246.17L518.6 244.16L518.19 242.16L517.76 240.17L517.3 238.18L516.83 236.2L516.33 234.23L515.82 232.27L515.28 230.32L514.72 228.37L514.13 226.44L513.53 224.51L512.91 222.59L512.26 220.67L511.59 218.77L510.9 216.87L510.19 214.98L509.46 213.1L508.7 211.23L507.93 209.36L507.13 207.5L506.31 205.65L505.47 203.8L504.61 201.96L503.73 200.13L502.82 198.31L501.89 196.5L500.94 194.69L499.97 192.89L498.98 191.09L497.97 189.3L496.93 187.52L495.87 185.75L494.79 183.98L493.69 182.22L492.57 180.47L491.08 178.2L489.57 175.96L488.03 173.74L486.47 171.55L484.88 169.38L483.26 167.24L481.63 165.12L479.96 163.03L478.28 160.96L476.56 158.92L474.83 156.91L473.07 154.92L471.28 152.96L469.48 151.02L467.64 149.11L465.79 147.22L463.91 145.36L462.01 143.53L460.09 141.73L458.14 139.95L456.17 138.2L454.18 136.48L452.17 134.78L450.13 133.11L448.07 131.47L446 129.85L443.89 128.27L441.77 126.71L439.63 125.18L437.46 123.68L435.28 122.21L433.07 120.76L430.85 119.34L428.6 117.96L426.33 116.6L424.04 115.27L421.74 113.97L419.41 112.7L417.06 111.46L414.7 110.24L412.95 109.38L411.2 108.53L409.46 107.7L407.72 106.9L405.98 106.11L404.25 105.35L402.51 104.6L400.78 103.88L399.04 103.17L397.31 102.48L395.57 101.82L393.84 101.17L392.1 100.54L390.35 99.93L388.61 99.34L386.86 98.77L385.1 98.21L383.34 97.68L381.58 97.16L379.81 96.66L378.03 96.18L376.24 95.71L374.45 95.26L372.65 94.83L370.84 94.42L369.02 94.02L367.18 93.65L365.34 93.28L363.49 92.94L361.62 92.61L359.75 92.29L357.86 91.99L355.95 91.71L354.03 91.45L352.1 91.19L350.15 90.96L348.19 90.74L346.21 90.53L344.21 90.34L342.19 90.17L339.06 89.94L335.91 89.77L332.76 89.66L329.6 89.61L326.43 89.61L323.26 89.67Z" id="a10JF68fVP"></path><path d="M236.5 164.42C232.65 166.9 221.46 179.15 217.98 184.73C206.87 202.48 204.37 226.13 211.02 249.22C216.09 266.66 222.29 280 233.63 297.98C247.99 320.61 257.29 332.86 272.19 348.6C294.57 372.24 313.39 385.49 342.27 397.82C363.59 406.96 379.32 412.16 388.16 413.09C394.29 413.71 407.67 411.54 415.53 408.59C426.42 404.56 438.89 395.57 443.73 388.28C448.57 380.84 453.56 364.02 454.16 352.86C454.19 352.37 454.34 349.91 454.62 345.5C453.21 343.82 452.43 342.89 452.27 342.71C450.61 340.84 443.8 336.66 430.05 329.06C397.38 311.08 393.23 309.37 388.09 312.17C386.8 312.79 381.96 317.82 377.43 323.25C363.97 339.29 361.17 342.09 358.9 342.09C356.03 342.09 337.21 332.24 328.44 326.19C318.23 319.06 311.58 313.33 303.18 304.41C293.2 293.79 282.39 278.6 276.34 266.74C276.25 266.56 275.8 265.63 274.98 263.95C278.25 260.28 280.06 258.24 280.43 257.83C287.61 250 290.56 245.27 293.43 237.05C296.38 228.68 296.23 226.13 291.92 214.58C288.06 204.27 284.96 195.74 279.6 180.93C275.21 168.77 271.96 163.8 267.42 162.33C263.11 161.01 245.73 160.63 242.17 161.79C240.43 162.33 237.94 163.57 236.5 164.42Z" id="d9Ddo4XtAh"></path></defs><g><g><g><use xlink:href="#a10JF68fVP" opacity="1" fill="#ffffff" fill-opacity="1"></use><g><use xlink:href="#a10JF68fVP" opacity="1" fill-opacity="0" stroke="#000000" stroke-width="1" stroke-opacity="0"></use></g></g><g><use xlink:href="#d9Ddo4XtAh" opacity="1" fill="#ffffff" fill-opacity="1"></use><g><use xlink:href="#d9Ddo4XtAh" opacity="1" fill-opacity="0" stroke="#000000" stroke-width="1" stroke-opacity="0"></use></g></g></g></g></svg>