<?xml version="1.0" encoding="UTF-8" standalone="no"?>
<!DOCTYPE svg PUBLIC "-//W3C//DTD SVG 1.1//EN" "http://www.w3.org/Graphics/SVG/1.1/DTD/svg11.dtd">
<svg version="1.1" xmlns="http://www.w3.org/2000/svg" xmlns:xlink="http://www.w3.org/1999/xlink" preserveAspectRatio="xMidYMid meet" viewBox="0 0 640 640" width="70" height="70"><defs><path d="M247.94 49.62L250.65 49.63L253.48 49.64L256.44 49.65L259.53 49.67L262.75 49.68L266.11 49.7L319.54 49.97L325.41 53.97L325.66 54.15L325.91 54.34L326.16 54.54L326.41 54.74L326.66 54.94L326.92 55.16L327.17 55.37L327.42 55.6L327.67 55.82L327.92 56.05L328.17 56.29L328.42 56.53L328.67 56.77L328.92 57.02L329.16 57.27L329.4 57.52L329.65 57.78L329.88 58.04L330.12 58.3L330.35 58.57L330.58 58.83L330.81 59.1L331.04 59.37L331.26 59.64L331.48 59.91L331.69 60.18L331.9 60.46L332.11 60.73L332.31 61L332.51 61.28L332.7 61.55L332.89 61.82L333.07 62.09L333.25 62.37L333.42 62.64L333.59 62.91L333.75 63.17L333.91 63.44L334.06 63.7L334.2 63.96L337.13 69.83L337.13 156.97L337.13 161.67L337.13 166.22L337.13 170.62L337.12 174.88L337.11 179L337.1 182.98L337.09 186.82L337.08 190.53L337.07 194.1L337.05 197.54L337.03 200.85L337.01 204.03L336.99 207.08L336.97 210L336.94 212.8L336.92 215.48L336.89 218.03L336.85 220.47L336.82 222.78L336.78 224.98L336.74 227.07L336.7 229.04L336.66 230.9L336.61 232.64L336.57 234.28L336.52 235.82L336.46 237.24L336.41 238.56L336.35 239.78L336.29 240.9L336.23 241.93L336.16 242.85L336.09 243.68L336.02 244.41L335.95 245.05L335.87 245.6L335.79 246.06L335.71 246.43L335.62 246.72L335.53 246.92L335.09 247.71L334.58 248.54L333.98 249.42L333.32 250.34L332.58 251.31L331.78 252.31L330.92 253.35L330 254.42L329.02 255.52L327.99 256.64L326.92 257.79L325.79 258.96L324.62 260.15L323.41 261.36L322.17 262.57L320.89 263.8L319.58 265.03L318.24 266.27L316.88 267.5L315.5 268.74L314.1 269.97L312.68 271.2L311.26 272.41L309.82 273.61L308.38 274.8L306.94 275.96L305.5 277.11L304.07 278.23L302.64 279.32L301.22 280.39L299.82 281.42L298.44 282.41L297.07 283.37L295.73 284.29L294.42 285.16L293.13 285.99L291.88 286.76L290.67 287.48L289.49 288.15L288.36 288.76L287.91 289L287.48 289.22L287.06 289.43L286.66 289.63L286.27 289.83L285.9 290.01L285.54 290.18L285.2 290.34L284.87 290.49L284.55 290.63L284.25 290.76L283.96 290.88L283.68 290.99L283.41 291.09L283.15 291.19L282.9 291.27L282.65 291.34L282.42 291.41L282.2 291.46L281.98 291.51L281.77 291.55L281.57 291.58L281.38 291.6L281.19 291.61L281 291.62L280.82 291.61L280.64 291.6L280.47 291.58L280.3 291.55L280.14 291.52L279.97 291.47L279.81 291.42L279.65 291.36L279.49 291.3L279.32 291.23L279.16 291.15L279 291.06L278.84 290.97L278.67 290.87L278.5 290.76L278.22 290.61L277.86 290.47L277.45 290.34L276.97 290.22L276.43 290.1L275.84 289.99L275.21 289.88L274.52 289.79L273.79 289.7L273.03 289.62L272.22 289.54L271.39 289.47L270.52 289.41L269.63 289.36L268.72 289.31L267.8 289.27L266.85 289.24L265.9 289.22L264.94 289.2L263.98 289.19L263.01 289.19L262.05 289.2L261.1 289.21L260.16 289.24L259.23 289.26L258.32 289.3L257.43 289.34L256.57 289.4L255.73 289.46L254.93 289.52L254.16 289.6L253.43 289.68L252.75 289.77L252.11 289.87L251.52 289.98L250.98 290.09L250.51 290.21L250.09 290.34L249.74 290.48L249.45 290.63L249.21 290.77L248.95 290.89L248.68 290.99L248.4 291.07L248.1 291.13L247.79 291.17L247.47 291.2L247.13 291.19L246.78 291.17L246.41 291.13L246.02 291.06L245.62 290.98L245.2 290.87L244.76 290.73L244.3 290.58L243.82 290.4L243.33 290.2L242.81 289.97L242.27 289.72L241.71 289.44L241.12 289.14L240.52 288.82L239.89 288.47L239.23 288.09L238.56 287.69L237.85 287.27L237.12 286.81L236.37 286.33L235.59 285.82L234.78 285.29L233.94 284.72L233.08 284.13L232.18 283.51L231.26 282.87L230.31 282.19L229.32 281.49L228.31 280.75L227.26 279.99L226.18 279.19L225.07 278.37L223.92 277.51L222.78 276.65L221.64 275.77L220.51 274.88L219.39 273.99L218.28 273.08L217.17 272.17L216.08 271.26L215 270.34L213.94 269.41L212.88 268.49L211.84 267.56L210.82 266.63L209.81 265.71L208.82 264.78L207.85 263.86L206.9 262.94L205.97 262.02L205.06 261.12L204.18 260.21L203.32 259.32L202.48 258.43L201.67 257.55L200.88 256.68L200.12 255.83L199.39 254.99L198.69 254.16L198.02 253.34L197.38 252.54L196.77 251.76L196.2 250.99L195.66 250.25L195.15 249.52L194.68 248.81L194.25 248.13L193.86 247.46L193.5 246.82L193.19 246.21L192.92 245.62L192.69 245.05L192.54 244.65L192.4 244.22L192.27 243.78L192.14 243.3L192.02 242.78L191.91 242.23L191.8 241.62L191.7 240.97L191.6 240.25L191.51 239.46L191.43 238.6L191.35 237.67L191.28 236.64L191.21 235.53L191.15 234.32L191.09 233.01L191.04 231.59L190.99 230.05L190.94 228.39L190.9 226.6L190.87 224.68L190.84 222.61L190.81 220.41L190.79 218.05L190.77 215.53L190.75 212.84L190.74 209.99L190.73 206.96L190.72 203.75L190.72 200.34L190.72 196.75L190.72 192.95L190.72 188.94L190.73 184.72L190.74 180.28L190.75 175.62L190.77 170.72L190.78 165.58L190.8 160.2L190.82 154.57L190.85 148.45L190.88 142.63L190.9 137.11L190.93 131.87L190.96 126.9L190.98 122.21L191.01 117.78L191.04 113.6L191.07 109.66L191.1 105.97L191.13 102.5L191.16 99.25L191.2 96.21L191.24 93.38L191.28 90.75L191.32 88.3L191.37 86.03L191.42 83.93L191.48 82L191.54 80.22L191.6 78.59L191.67 77.09L191.75 75.73L191.83 74.49L191.91 73.37L192.01 72.35L192.11 71.42L192.21 70.59L192.33 69.84L192.45 69.16L192.58 68.55L192.72 68L192.86 67.49L193.02 67.02L193.18 66.59L193.36 66.18L193.54 65.79L193.73 65.41L193.94 65.02L194.15 64.63L194.41 64.14L194.68 63.67L194.94 63.2L195.21 62.74L195.48 62.3L195.76 61.86L196.04 61.43L196.32 61L196.61 60.59L196.9 60.19L197.19 59.79L197.49 59.4L197.79 59.02L198.09 58.65L198.4 58.29L198.71 57.93L199.03 57.58L199.35 57.24L199.68 56.91L200.01 56.58L200.35 56.26L200.69 55.95L201.04 55.65L201.4 55.35L201.75 55.06L202.12 54.78L202.49 54.5L202.86 54.23L203.25 53.96L203.63 53.7L204.03 53.45L204.43 53.2L204.83 52.96L205.25 52.73L205.67 52.5L206.1 52.28L206.53 52.06L206.97 51.85L207.42 51.64L207.88 51.44L208.19 51.31L208.51 51.19L208.87 51.07L209.24 50.96L209.65 50.85L210.09 50.75L210.57 50.66L211.08 50.57L211.63 50.48L212.23 50.4L212.88 50.32L213.58 50.25L214.33 50.18L215.14 50.12L216.01 50.06L216.94 50L217.93 49.95L219 49.9L220.14 49.86L221.35 49.82L222.64 49.78L224.02 49.75L225.47 49.72L227.02 49.7L228.65 49.68L230.38 49.66L232.21 49.64L234.13 49.63L236.16 49.62L238.29 49.62L240.53 49.62L242.89 49.62L245.35 49.62L247.94 49.62ZM228.32 57.37L225.35 57.48L222.59 57.65L220.04 57.87L217.68 58.15L215.51 58.51L213.53 58.94L211.71 59.46L210.06 60.07L208.57 60.78L207.23 61.59L206.03 62.51L204.96 63.55L204.02 64.72L203.2 66.02L202.49 67.46L201.88 69.04L201.37 70.77L200.95 72.67L200.6 74.72L200.33 76.95L200.12 79.36L199.97 81.95L199.87 84.74L199.81 87.72L199.78 90.91L199.78 94.31L199.8 97.93L199.82 101.78L199.85 105.85L199.87 110.17L199.88 114.73L199.88 158.57L325.14 158.57L325.14 161.9L325.14 162.1L325.13 162.29L325.13 162.47L325.12 162.64L325.11 162.81L325.09 162.97L325.07 163.13L325.05 163.27L325.02 163.41L324.99 163.55L324.96 163.68L324.92 163.8L324.88 163.91L324.84 164.02L324.79 164.13L324.74 164.23L324.68 164.32L324.61 164.41L324.55 164.49L324.47 164.57L324.4 164.64L324.31 164.71L324.23 164.77L324.13 164.83L324.03 164.88L323.93 164.93L323.82 164.98L323.7 165.02L323.58 165.06L323.45 165.09L323.32 165.12L323.18 165.14L323.03 165.17L322.88 165.19L322.72 165.2L322.55 165.21L322.38 165.22L322.19 165.23L322 165.23L321.81 165.24L321.67 165.24L321.53 165.24L321.4 165.24L321.26 165.25L321.13 165.26L321 165.27L320.87 165.28L320.75 165.3L320.62 165.31L320.5 165.33L320.38 165.35L320.27 165.37L320.15 165.39L320.04 165.42L319.93 165.45L319.83 165.47L319.73 165.5L319.63 165.53L319.54 165.57L319.44 165.6L319.36 165.64L319.27 165.67L319.19 165.71L319.11 165.75L319.04 165.79L318.97 165.84L318.91 165.88L318.84 165.93L318.79 165.97L318.74 166.02L318.69 166.07L318.64 166.12L318.61 166.17L318.57 166.23L318.54 166.28L318.52 166.34L318.5 166.39L318.49 166.45L318.48 166.51L318.48 166.57L318.48 166.62L318.49 166.67L318.5 166.72L318.52 166.77L318.54 166.82L318.57 166.87L318.61 166.91L318.64 166.96L318.69 167.01L318.74 167.06L318.79 167.1L318.84 167.15L318.91 167.19L318.97 167.24L319.04 167.28L319.11 167.32L319.19 167.37L319.27 167.41L319.36 167.45L319.44 167.48L319.54 167.52L319.63 167.56L319.73 167.59L319.83 167.62L319.93 167.65L320.04 167.68L320.15 167.71L320.27 167.74L320.38 167.76L320.5 167.79L320.62 167.81L320.75 167.83L320.87 167.84L321 167.86L321.13 167.87L321.26 167.88L321.4 167.89L321.53 167.9L321.67 167.9L321.81 167.9L322.04 167.9L322.27 167.9L322.48 167.91L322.68 167.92L322.87 167.93L323.05 167.95L323.22 167.97L323.38 168L323.54 168.04L323.68 168.08L323.81 168.14L323.94 168.2L324.06 168.28L324.17 168.36L324.27 168.46L324.36 168.57L324.45 168.7L324.53 168.84L324.61 168.99L324.67 169.17L324.74 169.35L324.79 169.56L324.84 169.79L324.89 170.03L324.93 170.29L324.97 170.58L325 170.89L325.03 171.22L325.05 171.57L325.07 171.95L325.09 172.35L325.1 172.78L325.11 173.23L325.12 173.72L325.13 174.23L325.13 174.76L325.14 175.33L325.14 175.93L325.14 176.56L325.14 177.23L325.14 177.89L325.14 178.52L325.14 179.12L325.13 179.69L325.13 180.23L325.12 180.74L325.11 181.22L325.1 181.68L325.09 182.11L325.07 182.51L325.05 182.89L325.03 183.24L325 183.57L324.97 183.88L324.93 184.16L324.89 184.43L324.84 184.67L324.79 184.9L324.74 185.1L324.67 185.29L324.61 185.46L324.53 185.62L324.45 185.76L324.36 185.88L324.27 185.99L324.17 186.09L324.06 186.18L323.94 186.25L323.81 186.32L323.68 186.37L323.54 186.42L323.38 186.46L323.22 186.49L323.05 186.51L322.87 186.53L322.68 186.54L322.48 186.55L322.27 186.55L322.04 186.56L321.81 186.56L321.67 186.56L321.53 186.56L321.4 186.56L321.26 186.57L321.13 186.58L321 186.59L320.87 186.6L320.75 186.62L320.62 186.63L320.5 186.65L320.38 186.67L320.27 186.69L320.15 186.72L320.04 186.74L319.93 186.77L319.83 186.79L319.73 186.82L319.63 186.86L319.54 186.89L319.44 186.92L319.36 186.96L319.27 187L319.19 187.03L319.11 187.07L319.04 187.12L318.97 187.16L318.91 187.2L318.84 187.25L318.79 187.29L318.74 187.34L318.69 187.39L318.64 187.44L318.61 187.49L318.57 187.55L318.54 187.6L318.52 187.66L318.5 187.71L318.49 187.77L318.48 187.83L318.48 187.89L318.48 187.94L318.49 187.99L318.5 188.04L318.52 188.1L318.54 188.15L318.57 188.2L318.61 188.26L318.64 188.31L318.69 188.37L318.74 188.43L318.79 188.48L318.84 188.54L318.91 188.6L318.97 188.66L319.04 188.72L319.11 188.77L319.19 188.83L319.27 188.89L319.36 188.95L319.44 189L319.54 189.06L319.63 189.12L319.73 189.18L319.83 189.23L319.93 189.29L320.04 189.34L320.15 189.4L320.27 189.45L320.38 189.5L320.5 189.56L320.62 189.61L320.75 189.66L320.87 189.71L321 189.76L321.13 189.8L321.26 189.85L321.4 189.89L321.53 189.94L321.67 189.98L321.81 190.02L322.03 190.08L322.25 190.14L322.45 190.2L322.65 190.26L322.83 190.32L323.01 190.39L323.17 190.46L323.33 190.53L323.48 190.61L323.62 190.69L323.76 190.78L323.88 190.88L324 190.98L324.11 191.09L324.21 191.22L324.31 191.35L324.39 191.49L324.48 191.64L324.55 191.81L324.62 191.99L324.69 192.18L324.75 192.38L324.8 192.6L324.85 192.84L324.89 193.09L324.93 193.36L324.97 193.65L325 193.96L325.03 194.28L325.05 194.63L325.07 195L325.09 195.38L325.1 195.79L325.11 196.23L325.12 196.68L325.13 197.17L325.13 197.67L325.14 198.2L325.14 198.76L325.14 199.35L325.14 199.95L325.14 200.53L325.14 201.08L325.13 201.59L325.13 202.09L325.12 202.55L325.11 202.99L325.1 203.41L325.09 203.8L325.07 204.17L325.05 204.51L325.03 204.83L325 205.14L324.97 205.42L324.93 205.68L324.89 205.92L324.84 206.14L324.79 206.35L324.74 206.54L324.67 206.71L324.61 206.87L324.53 207.01L324.45 207.14L324.36 207.25L324.27 207.36L324.17 207.45L324.06 207.53L323.94 207.6L323.81 207.66L323.68 207.71L323.54 207.75L323.38 207.78L323.22 207.81L323.05 207.83L322.87 207.85L322.68 207.86L322.48 207.87L322.27 207.87L322.04 207.88L321.81 207.88L321.65 207.88L321.5 207.88L321.34 207.89L321.2 207.9L321.05 207.91L320.91 207.93L320.78 207.95L320.64 207.97L320.51 207.99L320.39 208.02L320.27 208.05L320.15 208.08L320.03 208.12L319.92 208.15L319.82 208.19L319.72 208.23L319.62 208.28L319.52 208.33L319.43 208.37L319.34 208.43L319.26 208.48L319.18 208.54L319.11 208.59L319.04 208.65L318.97 208.72L318.91 208.78L318.85 208.85L318.79 208.91L318.74 208.98L318.7 209.06L318.66 209.13L318.62 209.21L318.59 209.28L318.56 209.36L318.53 209.45L318.51 209.53L318.5 209.61L318.49 209.7L318.48 209.79L318.48 209.88L318.48 209.96L318.49 210.05L318.5 210.14L318.51 210.22L318.53 210.31L318.56 210.39L318.59 210.47L318.62 210.54L318.66 210.62L318.7 210.69L318.74 210.77L318.79 210.84L318.85 210.9L318.91 210.97L318.97 211.03L319.04 211.1L319.11 211.16L319.18 211.22L319.26 211.27L319.34 211.32L319.43 211.38L319.52 211.42L319.62 211.47L319.72 211.52L319.82 211.56L319.92 211.6L320.03 211.63L320.15 211.67L320.27 211.7L320.39 211.73L320.51 211.76L320.64 211.78L320.78 211.8L320.91 211.82L321.05 211.84L321.2 211.85L321.34 211.86L321.5 211.87L321.65 211.87L321.81 211.87L322.04 211.87L322.27 211.88L322.48 211.88L322.68 211.89L322.87 211.9L323.05 211.92L323.22 211.94L323.38 211.97L323.54 212L323.68 212.05L323.81 212.1L323.94 212.16L324.06 212.23L324.17 212.31L324.27 212.4L324.36 212.51L324.45 212.62L324.53 212.75L324.61 212.9L324.67 213.06L324.74 213.23L324.79 213.42L324.84 213.63L324.89 213.86L324.93 214.11L324.97 214.37L325 214.66L325.03 214.96L325.05 215.29L325.07 215.64L325.09 216.01L325.1 216.41L325.11 216.83L325.12 217.28L325.13 217.75L325.13 218.25L325.14 218.78L325.14 219.34L325.14 219.92L325.14 220.54L325.14 221.15L325.14 221.73L325.14 222.29L325.13 222.82L325.13 223.32L325.12 223.79L325.11 224.24L325.1 224.66L325.09 225.06L325.07 225.43L325.05 225.78L325.03 226.11L325 226.41L324.97 226.7L324.93 226.97L324.89 227.21L324.84 227.44L324.79 227.65L324.74 227.84L324.67 228.01L324.61 228.17L324.53 228.32L324.45 228.45L324.36 228.57L324.27 228.67L324.17 228.76L324.06 228.84L323.94 228.91L323.81 228.97L323.68 229.02L323.54 229.07L323.38 229.1L323.22 229.13L323.05 229.15L322.87 229.17L322.68 229.18L322.48 229.19L322.27 229.19L322.04 229.2L321.81 229.2L321.65 229.2L321.5 229.2L321.34 229.21L321.2 229.22L321.05 229.23L320.91 229.25L320.78 229.27L320.64 229.29L320.51 229.31L320.39 229.34L320.27 229.37L320.15 229.4L320.03 229.44L319.92 229.47L319.82 229.51L319.72 229.56L319.62 229.6L319.52 229.65L319.43 229.7L319.34 229.75L319.26 229.8L319.18 229.86L319.11 229.91L319.04 229.97L318.97 230.04L318.91 230.1L318.85 230.17L318.79 230.24L318.74 230.31L318.7 230.38L318.66 230.45L318.62 230.53L318.59 230.61L318.56 230.68L318.53 230.77L318.51 230.85L318.5 230.93L318.49 231.02L318.48 231.11L318.48 231.2L318.48 231.29L318.49 231.37L318.5 231.46L318.51 231.54L318.53 231.63L318.56 231.71L318.59 231.79L318.62 231.86L318.66 231.94L318.7 232.01L318.74 232.09L318.79 232.16L318.85 232.22L318.91 232.29L318.97 232.36L319.04 232.42L319.11 232.48L319.18 232.54L319.26 232.59L319.34 232.65L319.43 232.7L319.52 232.75L319.62 232.79L319.72 232.84L319.82 232.88L319.92 232.92L320.03 232.96L320.15 232.99L320.27 233.02L320.39 233.05L320.51 233.08L320.64 233.1L320.78 233.12L320.91 233.14L321.05 233.16L321.2 233.17L321.34 233.18L321.5 233.19L321.65 233.19L321.81 233.19L322.01 233.2L322.21 233.2L322.4 233.21L322.58 233.22L322.76 233.23L322.92 233.25L323.08 233.27L323.23 233.29L323.37 233.32L323.51 233.35L323.64 233.38L323.76 233.42L323.88 233.47L323.99 233.51L324.09 233.57L324.19 233.63L324.28 233.69L324.37 233.76L324.45 233.83L324.52 233.91L324.59 234L324.66 234.09L324.72 234.18L324.77 234.29L324.82 234.4L324.87 234.52L324.91 234.64L324.95 234.77L324.98 234.91L325.01 235.05L325.04 235.2L325.06 235.36L325.08 235.53L325.1 235.7L325.11 235.89L325.12 236.08L325.13 236.28L325.14 236.48L325.14 236.7L325.14 236.93L325.13 237.33L325.09 237.76L325.02 238.2L324.94 238.66L324.82 239.14L324.68 239.63L324.52 240.14L324.33 240.67L324.12 241.21L323.89 241.76L323.63 242.33L323.35 242.91L323.05 243.5L322.72 244.11L322.37 244.73L322 245.36L321.61 246L321.2 246.66L320.76 247.33L320.31 248L319.83 248.69L319.34 249.39L318.82 250.09L318.29 250.81L317.74 251.53L317.16 252.27L316.57 253.01L315.96 253.75L315.33 254.51L314.68 255.27L314.02 256.04L313.34 256.81L312.64 257.59L311.92 258.38L311.19 259.17L310.44 259.96L309.67 260.76L308.89 261.56L308.1 262.37L307.28 263.18L306.67 263.78L306.09 264.36L305.53 264.9L305.01 265.42L304.51 265.9L304.05 266.36L303.62 266.79L303.21 267.19L302.84 267.57L302.49 267.91L302.18 268.23L301.89 268.51L301.63 268.78L301.41 269.01L301.21 269.22L301.03 269.4L300.89 269.55L300.78 269.68L300.69 269.78L300.64 269.86L300.61 269.91L300.61 269.93L300.64 269.93L300.69 269.9L300.78 269.85L300.89 269.78L301.03 269.68L301.19 269.55L301.39 269.4L301.61 269.23L301.85 269.03L302.13 268.81L302.43 268.57L302.76 268.31L303.11 268.02L303.5 267.71L303.9 267.37L304.34 267.02L304.8 266.64L305.29 266.24L306.03 265.61L306.76 264.99L307.48 264.38L308.2 263.76L308.89 263.16L309.58 262.55L310.26 261.96L310.93 261.37L311.58 260.78L312.22 260.2L312.86 259.62L313.48 259.05L314.09 258.49L314.68 257.93L315.27 257.37L315.85 256.82L316.41 256.28L316.96 255.74L317.5 255.21L318.03 254.68L318.54 254.16L319.05 253.64L319.54 253.13L320.02 252.63L320.49 252.13L320.95 251.63L321.39 251.15L321.83 250.66L322.25 250.19L322.66 249.71L323.05 249.25L323.44 248.79L323.81 248.33L324.17 247.89L324.52 247.44L324.85 247.01L325.18 246.58L325.49 246.15L325.79 245.73L326.07 245.32L326.3 244.99L326.51 244.67L326.71 244.36L326.9 244.05L327.08 243.73L327.26 243.41L327.42 243.08L327.57 242.73L327.71 242.36L327.84 241.97L327.97 241.54L328.09 241.07L328.2 240.57L328.3 240.02L328.39 239.42L328.48 238.76L328.56 238.04L328.63 237.26L328.69 236.4L328.75 235.48L328.81 234.47L328.86 233.38L328.9 232.2L328.94 230.92L328.98 229.55L329.01 228.07L329.03 226.48L329.06 224.78L329.07 222.96L329.09 221.02L329.1 218.95L329.11 216.74L329.12 214.4L329.13 211.92L329.13 209.29L329.13 206.5L329.14 203.56L329.14 200.46L329.14 197.19L329.14 193.75L329.14 146.58L323.81 146.58L323.52 146.58L323.25 146.58L322.98 146.57L322.72 146.56L322.47 146.55L322.23 146.54L321.99 146.53L321.77 146.51L321.55 146.49L321.34 146.47L321.14 146.45L320.95 146.42L320.77 146.4L320.59 146.37L320.42 146.33L320.26 146.3L320.11 146.26L319.96 146.22L319.82 146.18L319.69 146.13L319.57 146.08L319.45 146.03L319.34 145.97L319.24 145.92L319.15 145.86L319.06 145.79L318.97 145.73L318.9 145.66L318.83 145.59L318.77 145.51L318.71 145.43L318.66 145.35L318.62 145.27L318.58 145.18L318.55 145.09L318.52 144.99L318.5 144.89L318.49 144.79L318.48 144.69L318.48 144.58L318.48 144.47L318.49 144.37L318.5 144.27L318.52 144.17L318.55 144.07L318.58 143.98L318.62 143.89L318.66 143.81L318.71 143.73L318.77 143.65L318.83 143.57L318.9 143.5L318.97 143.43L319.06 143.37L319.15 143.3L319.24 143.24L319.34 143.19L319.45 143.13L319.57 143.08L319.69 143.03L319.82 142.99L319.96 142.94L320.11 142.9L320.26 142.86L320.42 142.83L320.59 142.79L320.77 142.76L320.95 142.74L321.14 142.71L321.34 142.69L321.55 142.67L321.77 142.65L321.99 142.63L322.23 142.62L322.47 142.61L322.72 142.6L322.98 142.59L323.25 142.59L323.52 142.58L323.81 142.58L329.14 142.58L329.14 125.26L323.81 125.26L323.52 125.26L323.25 125.25L322.98 125.25L322.72 125.24L322.47 125.23L322.23 125.22L321.99 125.21L321.77 125.19L321.55 125.17L321.34 125.15L321.14 125.13L320.95 125.1L320.77 125.08L320.59 125.05L320.42 125.01L320.26 124.98L320.11 124.94L319.96 124.9L319.82 124.86L319.69 124.81L319.57 124.76L319.45 124.71L319.34 124.65L319.24 124.6L319.15 124.54L319.06 124.47L318.97 124.41L318.9 124.34L318.83 124.27L318.77 124.19L318.71 124.11L318.66 124.03L318.62 123.95L318.58 123.86L318.55 123.77L318.52 123.67L318.5 123.57L318.49 123.47L318.48 123.37L318.48 123.26L318.48 123.15L318.49 123.05L318.5 122.95L318.52 122.85L318.55 122.75L318.58 122.66L318.62 122.57L318.66 122.49L318.71 122.41L318.77 122.33L318.83 122.25L318.9 122.18L318.97 122.11L319.06 122.05L319.15 121.98L319.24 121.92L319.34 121.87L319.45 121.81L319.57 121.76L319.69 121.71L319.82 121.66L319.96 121.62L320.11 121.58L320.26 121.54L320.42 121.51L320.59 121.47L320.77 121.44L320.95 121.42L321.14 121.39L321.34 121.37L321.55 121.35L321.77 121.33L321.99 121.31L322.23 121.3L322.47 121.29L322.72 121.28L322.98 121.27L323.25 121.27L323.52 121.26L323.81 121.26L329.14 121.26L329.14 103.94L323.81 103.94L323.52 103.94L323.25 103.93L322.98 103.93L322.72 103.92L322.47 103.91L322.23 103.9L321.99 103.89L321.77 103.87L321.55 103.85L321.34 103.83L321.14 103.81L320.95 103.78L320.77 103.76L320.59 103.73L320.42 103.69L320.26 103.66L320.11 103.62L319.96 103.58L319.82 103.53L319.69 103.49L319.57 103.44L319.45 103.39L319.34 103.33L319.24 103.28L319.15 103.22L319.06 103.15L318.97 103.09L318.9 103.02L318.83 102.95L318.77 102.87L318.71 102.79L318.66 102.71L318.62 102.63L318.58 102.54L318.55 102.45L318.52 102.35L318.5 102.25L318.49 102.15L318.48 102.05L318.48 101.94L318.48 101.83L318.49 101.73L318.5 101.63L318.52 101.53L318.55 101.43L318.58 101.34L318.62 101.25L318.66 101.17L318.71 101.09L318.77 101.01L318.83 100.93L318.9 100.86L318.97 100.79L319.06 100.73L319.15 100.66L319.24 100.6L319.34 100.55L319.45 100.49L319.57 100.44L319.69 100.39L319.82 100.34L319.96 100.3L320.11 100.26L320.26 100.22L320.42 100.19L320.59 100.15L320.77 100.12L320.95 100.1L321.14 100.07L321.34 100.05L321.55 100.03L321.77 100.01L321.99 99.99L322.23 99.98L322.47 99.97L322.72 99.96L322.98 99.95L323.25 99.94L323.52 99.94L323.81 99.94L329.14 99.94L329.14 82.62L323.81 82.62L323.52 82.62L323.25 82.61L322.98 82.61L322.72 82.6L322.47 82.59L322.23 82.58L321.99 82.57L321.77 82.55L321.55 82.53L321.34 82.51L321.14 82.49L320.95 82.46L320.77 82.43L320.59 82.4L320.42 82.37L320.26 82.34L320.11 82.3L319.96 82.26L319.82 82.21L319.69 82.17L319.57 82.12L319.45 82.07L319.34 82.01L319.24 81.96L319.15 81.9L319.06 81.83L318.97 81.77L318.9 81.7L318.83 81.62L318.77 81.55L318.71 81.47L318.66 81.39L318.62 81.3L318.58 81.22L318.55 81.13L318.52 81.03L318.5 80.93L318.49 80.83L318.48 80.73L318.48 80.62L318.48 80.51L318.49 80.41L318.5 80.3L318.52 80.21L318.55 80.11L318.58 80.02L318.62 79.93L318.66 79.85L318.71 79.77L318.77 79.69L318.83 79.61L318.9 79.54L318.97 79.47L319.06 79.41L319.15 79.34L319.24 79.28L319.34 79.22L319.45 79.17L319.57 79.12L319.69 79.07L319.82 79.02L319.96 78.98L320.11 78.94L320.26 78.9L320.42 78.87L320.59 78.83L320.77 78.8L320.95 78.77L321.14 78.75L321.34 78.73L321.55 78.71L321.77 78.69L321.99 78.67L322.23 78.66L322.47 78.65L322.72 78.64L322.98 78.63L323.25 78.62L323.52 78.62L323.81 78.62L324.14 78.62L324.46 78.62L324.77 78.61L325.06 78.61L325.34 78.6L325.6 78.59L325.86 78.58L326.1 78.56L326.33 78.54L326.55 78.52L326.76 78.5L326.96 78.47L327.14 78.44L327.32 78.41L327.49 78.37L327.64 78.33L327.79 78.29L327.92 78.24L328.05 78.19L328.17 78.14L328.28 78.08L328.38 78.01L328.48 77.94L328.57 77.87L328.65 77.79L328.72 77.71L328.78 77.62L328.84 77.53L328.9 77.43L328.94 77.33L328.98 77.22L329.02 77.1L329.05 76.98L329.07 76.85L329.09 76.72L329.11 76.58L329.12 76.43L329.13 76.28L329.14 76.12L329.14 75.95L329.13 75.71L329.12 75.45L329.09 75.19L329.06 74.92L329.01 74.65L328.95 74.36L328.89 74.08L328.81 73.79L328.73 73.49L328.63 73.18L328.52 72.87L328.41 72.55L328.28 72.23L328.14 71.9L327.99 71.56L327.84 71.22L327.67 70.87L327.49 70.52L327.3 70.16L327.11 69.79L326.9 69.42L326.68 69.04L326.45 68.65L326.21 68.26L325.96 67.87L325.7 67.46L325.43 67.05L325.15 66.64L324.87 66.21L324.57 65.79L324.26 65.35L323.94 64.91L323.61 64.46L323.26 64.01L322.91 63.55L322.55 63.09L322.18 62.62L321.8 62.14L321.41 61.65L321.01 61.16L316.48 57.97L265.84 57.57L260.62 57.52L255.68 57.46L251.01 57.4L246.61 57.35L242.46 57.31L238.57 57.28L234.92 57.28L231.5 57.31L228.32 57.37Z" id="b7IwqLUDWY"></path><path d="M395.46 245.89L397.01 246L398.54 246.16L400.05 246.37L401.54 246.62L403.01 246.91L404.45 247.25L405.87 247.63L407.26 248.05L408.62 248.51L409.95 249.01L411.25 249.55L412.52 250.13L413.76 250.76L414.96 251.42L416.13 252.12L417.27 252.85L418.36 253.62L419.42 254.43L420.44 255.28L421.42 256.16L422.36 257.08L423.25 258.03L424.1 259.01L424.91 260.03L425.67 261.08L426.38 262.16L427.05 263.28L427.66 264.42L428.23 265.6L428.74 266.81L429.2 268.04L429.61 269.31L429.82 270.02L430.01 270.79L430.19 271.62L430.37 272.49L430.53 273.41L430.68 274.37L430.82 275.37L430.95 276.42L431.08 277.5L431.19 278.62L431.29 279.77L431.37 280.95L431.45 282.16L431.52 283.4L431.58 284.66L431.63 285.94L431.66 287.24L431.69 288.56L431.7 289.9L431.71 291.24L431.7 292.6L431.69 293.96L431.66 295.33L431.63 296.71L431.58 298.08L431.52 299.46L431.45 300.83L431.37 302.19L431.29 303.55L431.19 304.89L431.08 306.22L430.95 307.54L430.82 308.84L430.68 310.13L430.53 311.39L430.37 312.62L430.19 313.83L430.01 315.01L429.82 316.16L429.61 317.28L429.42 318.37L429.23 319.41L429.05 320.41L428.88 321.35L428.71 322.24L428.55 323.09L428.4 323.9L428.25 324.66L428.11 325.38L427.97 326.05L427.84 326.69L427.71 327.29L427.58 327.85L427.46 328.37L427.34 328.86L427.22 329.32L427.1 329.74L426.99 330.13L426.88 330.49L426.76 330.82L426.65 331.12L426.54 331.4L426.43 331.65L426.31 331.88L426.2 332.09L426.08 332.27L425.96 332.43L425.84 332.58L425.71 332.7L425.58 332.81L425.45 332.91L425.31 332.99L425.17 333.05L425.02 333.11L424.87 333.16L424.71 333.19L424.55 333.22L424.38 333.24L424.2 333.26L424.01 333.27L423.87 333.28L423.73 333.29L423.6 333.3L423.48 333.31L423.36 333.32L423.25 333.33L423.15 333.34L423.06 333.35L422.97 333.36L422.89 333.37L422.82 333.39L422.76 333.4L422.7 333.41L422.66 333.43L422.62 333.44L422.58 333.45L422.56 333.47L422.54 333.48L422.53 333.5L422.53 333.52L422.54 333.54L422.55 333.56L422.57 333.57L422.6 333.59L422.64 333.62L422.69 333.64L422.74 333.66L422.8 333.69L422.87 333.71L422.95 333.74L423.03 333.76L423.12 333.79L423.22 333.82L423.33 333.85L423.45 333.89L423.57 333.92L423.7 333.95L423.84 333.99L423.99 334.03L424.15 334.07L424.24 334.09L424.33 334.11L424.42 334.14L424.5 334.17L424.59 334.21L424.68 334.25L424.76 334.29L424.84 334.33L424.93 334.38L425.01 334.42L425.09 334.47L425.17 334.53L425.24 334.58L425.32 334.64L425.39 334.7L425.46 334.76L425.53 334.82L425.6 334.89L425.67 334.95L425.73 335.02L425.79 335.09L425.85 335.15L425.91 335.23L425.96 335.3L426.01 335.37L426.06 335.44L426.11 335.51L426.15 335.59L426.19 335.66L426.23 335.74L426.26 335.81L426.29 335.88L426.32 335.96L426.34 336.03L426.37 336.11L426.38 336.18L426.4 336.25L426.41 336.32L426.41 336.4L426.41 336.47L426.41 336.72L426.4 336.96L426.39 337.2L426.37 337.44L426.34 337.67L426.31 337.9L426.27 338.13L426.23 338.35L426.19 338.57L426.14 338.78L426.08 338.98L426.02 339.18L425.96 339.38L425.89 339.57L425.82 339.75L425.75 339.93L425.67 340.1L425.59 340.26L425.5 340.42L425.41 340.56L425.32 340.71L425.23 340.84L425.13 340.96L425.03 341.08L424.93 341.19L424.83 341.29L424.72 341.38L424.61 341.46L424.5 341.54L424.39 341.6L424.28 341.66L424.16 341.7L424.05 341.73L423.93 341.76L423.81 341.77L423.69 341.77L423.57 341.76L423.45 341.74L423.34 341.71L423.22 341.66L423.13 341.64L423.05 341.63L422.97 341.62L422.88 341.63L422.8 341.65L422.71 341.68L422.62 341.72L422.53 341.77L422.44 341.84L422.34 341.91L422.25 341.99L422.16 342.09L422.06 342.19L421.96 342.31L421.86 342.44L421.76 342.57L421.66 342.72L421.56 342.88L421.45 343.05L421.35 343.23L421.24 343.42L421.14 343.62L421.03 343.83L420.92 344.05L420.81 344.28L420.7 344.53L420.59 344.78L420.48 345.04L420.37 345.32L420.25 345.6L420.14 345.89L420.03 346.2L419.91 346.51L419.79 346.83L419.68 347.17L419.56 347.51L419.44 347.87L419.32 348.23L419.2 348.61L419.08 348.99L418.98 349.32L418.88 349.65L418.78 349.97L418.67 350.29L418.56 350.61L418.45 350.93L418.34 351.24L418.23 351.54L418.12 351.85L418 352.15L417.89 352.44L417.77 352.73L417.66 353.02L417.54 353.29L417.42 353.57L417.31 353.83L417.19 354.1L417.07 354.35L416.95 354.6L416.84 354.84L416.72 355.07L416.6 355.3L416.48 355.52L416.37 355.73L416.25 355.93L416.14 356.12L416.03 356.31L415.91 356.48L415.8 356.65L415.69 356.81L415.58 356.95L415.48 357.09L415.37 357.22L415.27 357.33L415.17 357.44L415.07 357.53L414.97 357.61L414.87 357.68L414.78 357.74L414.69 357.79L414.6 357.82L414.51 357.84L414.43 357.86L414.35 357.88L414.27 357.9L414.2 357.91L414.13 357.92L414.06 357.93L414 357.94L413.94 357.94L413.88 357.94L413.82 357.93L413.77 357.92L413.72 357.91L413.68 357.9L413.63 357.88L413.59 357.86L413.55 357.84L413.52 357.82L413.49 357.79L413.46 357.76L413.43 357.72L413.41 357.68L413.39 357.64L413.38 357.6L413.36 357.55L413.35 357.5L413.34 357.45L413.34 357.4L413.34 357.34L413.34 357.28L413.34 357.21L413.35 357.14L413.36 357.07L413.38 357L413.39 356.92L413.41 356.84L413.43 356.76L413.46 356.68L413.49 356.59L413.52 356.5L413.55 356.41L413.59 356.31L413.63 356.2L413.67 356.08L413.71 355.96L413.75 355.82L413.8 355.68L413.85 355.54L413.9 355.38L413.95 355.22L414.01 355.06L414.06 354.88L414.12 354.71L414.18 354.52L414.24 354.34L414.3 354.14L414.36 353.95L414.42 353.75L414.49 353.54L414.55 353.33L414.62 353.12L414.69 352.9L414.75 352.68L414.82 352.46L414.89 352.24L414.96 352.01L415.03 351.78L415.1 351.55L415.17 351.32L415.25 351.09L415.32 350.86L415.39 350.62L415.46 350.39L415.53 350.16L415.6 349.92L415.67 349.69L415.75 349.46L415.82 349.22L415.89 348.99L415.96 348.75L416.03 348.51L416.1 348.27L416.18 348.03L416.25 347.79L416.33 347.54L416.41 347.3L416.49 347.06L416.56 346.83L416.64 346.59L416.72 346.35L416.8 346.12L416.89 345.89L416.97 345.66L417.05 345.43L417.13 345.21L417.21 344.99L417.29 344.77L417.37 344.55L417.45 344.35L417.53 344.14L417.61 343.94L417.69 343.74L417.77 343.55L417.84 343.37L417.92 343.19L417.99 343.01L418.07 342.84L418.14 342.68L418.21 342.53L418.28 342.38L418.35 342.24L418.41 342.1L418.48 341.98L418.54 341.86L418.6 341.75L418.66 341.65L418.71 341.56L418.77 341.47L418.82 341.4L418.89 341.32L418.95 341.24L419.01 341.17L419.06 341.09L419.11 341.02L419.16 340.95L419.2 340.89L419.23 340.82L419.26 340.76L419.29 340.7L419.31 340.64L419.33 340.58L419.34 340.53L419.35 340.47L419.35 340.42L419.35 340.37L419.35 340.33L419.34 340.28L419.32 340.24L419.3 340.2L419.28 340.16L419.25 340.12L419.21 340.09L419.17 340.05L419.13 340.02L419.08 339.99L419.03 339.97L418.97 339.94L418.9 339.92L418.84 339.9L418.76 339.88L418.69 339.86L418.6 339.85L418.52 339.83L418.42 339.82L418.32 339.81L418.22 339.81L418.11 339.8L418 339.8L417.89 339.8L417.72 339.8L417.56 339.79L417.41 339.79L417.26 339.78L417.13 339.77L417 339.75L416.88 339.73L416.76 339.71L416.65 339.68L416.55 339.65L416.46 339.61L416.37 339.56L416.29 339.51L416.22 339.46L416.15 339.4L416.09 339.33L416.04 339.25L415.99 339.17L415.95 339.08L415.92 338.98L415.89 338.88L415.87 338.76L415.86 338.64L415.85 338.5L415.85 338.36L415.85 338.21L415.87 338.04L415.88 337.87L415.91 337.69L415.94 337.49L415.97 337.29L416.01 337.07L416.06 336.84L416.11 336.6L416.17 336.34L416.24 336.07L416.31 335.79L416.38 335.5L416.47 335.19L416.55 334.87L416.58 334.75L416.62 334.63L416.65 334.52L416.69 334.4L416.73 334.29L416.77 334.19L416.82 334.08L416.87 333.98L416.91 333.88L416.96 333.78L417.02 333.69L417.07 333.6L417.13 333.51L417.18 333.42L417.24 333.34L417.3 333.26L417.36 333.19L417.42 333.12L417.49 333.05L417.55 332.99L417.62 332.92L417.68 332.87L417.75 332.82L417.82 332.77L417.89 332.72L417.96 332.68L418.03 332.65L418.1 332.61L418.17 332.59L418.24 332.56L418.31 332.54L418.38 332.53L418.45 332.52L418.53 332.52L418.6 332.52L418.67 332.53L418.74 332.54L418.81 332.55L418.88 332.58L418.95 332.6L419.01 332.62L419.07 332.64L419.13 332.65L419.19 332.65L419.25 332.66L419.31 332.66L419.37 332.66L419.42 332.65L419.48 332.64L419.54 332.63L419.59 332.62L419.65 332.6L419.7 332.58L419.76 332.55L419.81 332.52L419.86 332.49L419.91 332.46L419.96 332.42L420 332.38L420.05 332.34L420.09 332.29L420.14 332.24L420.18 332.19L420.22 332.13L420.25 332.07L420.29 332.01L420.32 331.95L420.36 331.88L420.39 331.81L420.41 331.74L420.44 331.67L420.46 331.59L420.48 331.51L420.5 331.42L420.51 331.34L420.53 331.25L420.54 331.16L420.54 331.06L420.55 330.97L420.55 330.87L420.56 330.76L420.58 330.63L420.6 330.47L420.62 330.3L420.64 330.11L420.67 329.89L420.7 329.66L420.74 329.41L420.77 329.14L420.81 328.86L420.86 328.55L420.9 328.24L420.95 327.9L421 327.55L421.06 327.19L421.12 326.81L421.17 326.41L421.24 326.01L421.3 325.59L421.37 325.16L421.43 324.71L421.51 324.26L421.58 323.79L421.65 323.32L421.73 322.83L421.81 322.34L421.89 321.84L421.97 321.33L422.06 320.81L422.14 320.28L422.23 319.75L422.32 319.21L422.41 318.67L422.5 318.12L422.6 317.57L422.69 317.01L422.79 316.45L422.88 315.88L422.98 315.32L423.08 314.75L423.2 314.05L423.31 313.35L423.42 312.66L423.53 311.97L423.63 311.28L423.73 310.59L423.82 309.9L423.91 309.21L424 308.53L424.08 307.84L424.16 307.16L424.24 306.48L424.31 305.79L424.37 305.11L424.44 304.43L424.5 303.74L424.55 303.06L424.61 302.38L424.65 301.69L424.7 301L424.74 300.32L424.78 299.63L424.81 298.94L424.84 298.24L424.86 297.55L424.89 296.85L424.9 296.15L424.92 295.45L424.93 294.75L424.94 294.04L424.94 293.33L424.94 292.62L424.94 291.9L424.93 291.18L424.92 290.45L424.91 289.72L424.89 288.99L424.87 288.25L424.84 287.51L424.81 286.76L424.76 285.46L424.7 284.19L424.63 282.97L424.55 281.79L424.47 280.65L424.37 279.55L424.27 278.49L424.15 277.46L424.02 276.47L423.89 275.51L423.74 274.59L423.57 273.7L423.4 272.84L423.21 272.02L423.01 271.22L422.8 270.45L422.57 269.7L422.32 268.99L422.06 268.29L421.78 267.62L421.49 266.98L421.18 266.35L420.85 265.75L420.51 265.17L420.14 264.6L419.76 264.05L419.36 263.52L418.94 263L418.49 262.5L418.03 262.01L417.55 261.53L417.04 261.06L416.51 260.61L415.96 260.16L415.39 259.71L414.79 259.28L414.17 258.85L413.52 258.42L412.85 258L412.16 257.58L411.72 257.33L411.31 257.08L410.9 256.85L410.51 256.63L410.13 256.43L409.75 256.23L409.39 256.04L409.02 255.86L408.67 255.69L408.31 255.54L407.96 255.39L407.61 255.25L407.25 255.12L406.9 254.99L406.54 254.88L406.17 254.77L405.79 254.67L405.41 254.58L405.02 254.49L404.61 254.42L404.19 254.34L403.76 254.28L403.31 254.22L402.84 254.16L402.35 254.12L401.85 254.07L401.32 254.03L400.76 254L400.19 253.97L399.58 253.94L398.95 253.92L398.29 253.9L397.6 253.89L396.87 253.88L396.11 253.87L395.32 253.86L394.49 253.85L393.62 253.85L392.72 253.85L391.77 253.85L390.78 253.85L389.84 253.85L388.94 253.85L388.09 253.86L387.27 253.86L386.49 253.87L385.75 253.88L385.04 253.9L384.36 253.92L383.71 253.94L383.09 253.97L382.5 254L381.93 254.04L381.39 254.08L380.86 254.13L380.36 254.19L379.87 254.25L379.4 254.32L378.94 254.4L378.49 254.48L378.05 254.58L377.62 254.68L377.2 254.79L376.78 254.91L376.36 255.05L375.95 255.19L375.53 255.34L375.11 255.51L374.68 255.68L374.25 255.87L373.8 256.07L373.35 256.29L372.88 256.52L372.4 256.76L371.91 257.01L371.39 257.28L370.86 257.57L370.3 257.87L369.72 258.18L369.11 258.51L367.54 259.39L366 260.31L364.47 261.27L362.96 262.29L361.47 263.35L360 264.45L358.56 265.6L357.14 266.79L355.74 268.03L354.36 269.3L353.01 270.62L351.68 271.98L350.37 273.38L349.09 274.82L347.84 276.3L346.61 277.82L345.4 279.37L344.22 280.97L343.07 282.6L341.95 284.26L340.85 285.97L339.78 287.7L338.74 289.47L337.72 291.28L336.74 293.11L335.78 294.98L334.85 296.89L333.96 298.82L333.09 300.78L332.25 302.77L331.45 304.8L330.68 306.85L329.94 308.93L329.23 311.03L328.55 313.16L327.91 315.32L327.3 317.51L326.72 319.72L326.18 321.95L325.67 324.21L325.36 325.79L325.06 327.41L324.8 329.05L324.55 330.73L324.34 332.45L324.15 334.2L323.98 335.98L323.84 337.8L323.73 339.66L323.64 341.56L323.57 343.49L323.54 345.47L323.52 347.49L323.54 349.55L323.58 351.65L323.65 353.8L323.74 355.99L323.86 358.23L324 360.52L324.17 362.85L324.37 365.23L324.6 367.67L324.85 370.15L325.13 372.69L325.43 375.28L325.76 377.92L326.12 380.62L326.51 383.37L326.92 386.18L327.36 389.04L327.83 391.97L328.32 394.95L328.84 398L329.39 401.1L329.97 404.27L330.57 407.51L331.21 410.8L331.87 414.16L332.55 417.59L333.27 421.08L333.54 422.39L333.8 423.65L334.06 424.88L334.29 426.06L334.52 427.21L334.74 428.33L334.95 429.41L335.14 430.46L335.33 431.48L335.51 432.48L335.68 433.46L335.84 434.41L335.98 435.34L336.13 436.26L336.26 437.16L336.38 438.05L336.5 438.93L336.61 439.8L336.71 440.66L336.8 441.52L336.89 442.38L336.97 443.23L337.04 444.09L337.11 444.95L337.17 445.82L337.22 446.7L337.27 447.59L337.32 448.49L337.36 449.4L337.39 450.33L337.42 451.29L337.45 452.26L337.47 453.25L337.49 454.28L337.5 455.32L337.51 456.4L337.52 457.51L337.53 458.66L337.53 459.84L337.53 461.06L337.53 462.28L337.53 463.45L337.53 464.57L337.52 465.66L337.51 466.7L337.5 467.7L337.49 468.66L337.47 469.59L337.45 470.48L337.43 471.34L337.41 472.17L337.38 472.96L337.35 473.72L337.32 474.46L337.28 475.17L337.24 475.85L337.19 476.51L337.14 477.14L337.09 477.75L337.03 478.35L336.97 478.92L336.9 479.48L336.83 480.03L336.76 480.55L336.67 481.07L336.59 481.58L336.49 482.07L336.4 482.56L336.29 483.04L336.18 483.51L336.07 483.98L335.95 484.44L335.82 484.91L335.68 485.37L335.54 485.84L335.4 486.31L335.24 486.78L335.08 487.26L334.91 487.75L334.73 488.24L334.14 489.82L333.52 491.36L332.89 492.86L332.23 494.32L331.56 495.75L330.87 497.13L330.16 498.48L329.42 499.78L328.67 501.05L327.9 502.29L327.1 503.48L326.29 504.64L325.45 505.77L324.59 506.86L323.7 507.91L322.8 508.92L321.87 509.91L320.91 510.85L319.93 511.77L318.93 512.65L317.9 513.49L316.84 514.3L315.76 515.08L314.65 515.83L313.52 516.54L312.36 517.22L311.17 517.87L309.95 518.49L308.71 519.08L307.43 519.63L306.13 520.16L304.8 520.65L303.43 521.12L302.04 521.55L300.62 521.96L299.16 522.33L297.68 522.68L296.16 523L294.61 523.29L293.03 523.56L291.01 523.84L289.02 524.04L287.04 524.15L285.08 524.18L283.14 524.12L281.22 523.98L279.33 523.76L277.45 523.46L275.61 523.08L273.79 522.62L272 522.08L270.23 521.47L268.5 520.78L266.8 520.02L265.13 519.18L263.5 518.28L261.91 517.3L260.35 516.26L258.83 515.14L257.35 513.96L255.91 512.71L254.51 511.4L253.16 510.03L251.86 508.59L250.6 507.09L249.39 505.53L248.23 503.91L247.12 502.23L246.06 500.5L245.05 498.71L244.11 496.86L243.21 494.96L242.38 493.01L241.6 491.01L240.88 488.96L240.23 486.86L239.64 484.71L239.11 482.51L238.65 480.27L238.26 477.98L238.1 476.86L237.95 475.74L237.83 474.62L237.72 473.49L237.62 472.36L237.55 471.23L237.49 470.09L237.46 468.94L237.44 467.78L237.43 466.61L237.45 465.43L237.49 464.24L237.54 463.04L237.61 461.82L237.71 460.59L237.82 459.34L237.95 458.07L238.1 456.79L238.27 455.49L238.46 454.16L238.67 452.82L238.9 451.45L239.15 450.06L239.42 448.64L239.71 447.2L240.02 445.73L240.36 444.24L240.71 442.71L241.08 441.15L241.48 439.57L241.9 437.95L242.34 436.3L242.8 434.61L243.28 432.89L243.79 431.13L244.32 429.33L244.87 427.5L245.44 425.62L246.04 423.71L246.65 421.75L247.34 419.59L248 417.5L248.64 415.49L249.25 413.54L249.84 411.66L250.4 409.85L250.94 408.1L251.46 406.41L251.96 404.78L252.44 403.21L252.89 401.69L253.33 400.23L253.74 398.82L254.14 397.45L254.51 396.13L254.87 394.86L255.21 393.63L255.53 392.44L255.84 391.28L256.13 390.17L256.41 389.09L256.67 388.03L256.91 387.01L257.14 386.02L257.36 385.05L257.56 384.11L257.75 383.19L257.93 382.28L258.1 381.4L258.25 380.52L258.4 379.67L258.53 378.82L258.66 377.98L258.78 377.15L258.88 376.32L258.98 375.5L259.08 374.67L259.16 373.84L259.24 373.01L259.31 372.18L259.38 371.5L259.44 370.84L259.5 370.22L259.56 369.63L259.61 369.07L259.65 368.54L259.69 368.03L259.73 367.55L259.75 367.09L259.78 366.65L259.79 366.24L259.8 365.85L259.81 365.48L259.8 365.13L259.79 364.79L259.78 364.47L259.75 364.17L259.72 363.88L259.68 363.61L259.63 363.35L259.57 363.1L259.51 362.86L259.43 362.63L259.35 362.41L259.26 362.2L259.16 361.99L259.05 361.79L258.93 361.59L258.8 361.39L258.66 361.2L258.51 361L258.34 360.81L258.17 360.62L257.99 360.42L257.8 360.22L257.59 360.01L257.37 359.8L257.14 359.58L256.9 359.35L256.65 359.12L256.4 358.89L256.17 358.68L255.95 358.47L255.74 358.26L255.54 358.05L255.35 357.85L255.18 357.65L255.01 357.44L254.85 357.24L254.7 357.02L254.56 356.8L254.43 356.57L254.31 356.33L254.19 356.08L254.09 355.81L253.99 355.53L253.9 355.23L253.81 354.92L253.74 354.58L253.67 354.22L253.6 353.84L253.54 353.43L253.49 353L253.44 352.54L253.4 352.05L253.36 351.52L253.33 350.96L253.3 350.37L253.28 349.74L253.26 349.08L253.24 348.37L253.22 347.62L253.21 346.83L253.2 345.99L253.2 345.11L253.19 344.17L253.19 343.19L253.18 342.16L253.18 341.07L253.18 339.93L253.18 338.8L253.18 337.72L253.19 336.7L253.19 335.72L253.19 334.8L253.2 333.93L253.21 333.1L253.22 332.31L253.24 331.57L253.25 330.87L253.27 330.21L253.3 329.59L253.33 329.01L253.36 328.46L253.39 327.95L253.43 327.46L253.48 327.01L253.53 326.59L253.59 326.19L253.65 325.82L253.72 325.48L253.79 325.15L253.87 324.85L253.96 324.57L254.05 324.31L254.16 324.06L254.27 323.83L254.38 323.6L254.51 323.4L254.64 323.2L254.79 323.01L254.94 322.82L255.1 322.65L255.27 322.47L255.45 322.3L255.64 322.13L255.85 321.95L256.06 321.78L256.28 321.6L256.51 321.41L256.83 321.16L257.12 320.93L257.4 320.7L257.67 320.48L257.91 320.27L258.14 320.07L258.36 319.87L258.56 319.69L258.74 319.51L258.91 319.34L259.06 319.17L259.19 319.02L259.31 318.87L259.41 318.73L259.49 318.6L259.56 318.47L259.61 318.35L259.64 318.24L259.66 318.13L259.66 318.03L259.65 317.93L259.61 317.85L259.56 317.76L259.5 317.69L259.41 317.62L259.31 317.55L259.2 317.49L259.06 317.44L258.91 317.39L258.74 317.34L258.56 317.3L258.36 317.27L258.14 317.24L257.9 317.21L257.65 317.19L257.37 317.17L257.09 317.16L256.78 317.15L256.46 317.15L256.11 317.14L255.7 317.14L255.31 317.13L254.93 317.1L254.56 317.07L254.21 317.03L253.87 316.97L253.55 316.91L253.24 316.83L252.95 316.74L252.67 316.64L252.4 316.53L252.15 316.4L251.91 316.25L251.68 316.1L251.46 315.92L251.26 315.73L251.06 315.53L250.88 315.31L250.71 315.07L250.55 314.81L250.4 314.54L250.26 314.25L250.13 313.94L250.01 313.6L249.9 313.25L249.8 312.88L249.71 312.49L249.62 312.08L249.55 311.64L249.48 311.19L249.42 310.71L249.37 310.2L249.32 309.68L249.29 309.13L249.25 308.55L249.23 307.95L249.21 307.32L249.2 306.67L249.19 305.99L249.19 305.29L249.19 304.38L249.19 303.51L249.2 302.69L249.21 301.92L249.23 301.18L249.25 300.48L249.29 299.82L249.33 299.2L249.39 298.61L249.46 298.06L249.54 297.54L249.63 297.06L249.74 296.6L249.87 296.18L250.01 295.79L250.18 295.43L250.36 295.09L250.57 294.78L250.8 294.5L251.05 294.24L251.33 294.01L251.63 293.79L251.96 293.6L252.32 293.43L252.71 293.27L253.13 293.14L253.58 293.02L254.07 292.91L254.59 292.82L255.14 292.75L255.74 292.69L256.37 292.63L257.04 292.59L257.74 292.56L258.49 292.53L259.29 292.52L260.13 292.5L261.01 292.5L261.94 292.49L262.91 292.49L263.96 292.5L264.95 292.5L265.91 292.51L266.81 292.53L267.67 292.56L268.49 292.59L269.27 292.64L270.01 292.69L270.7 292.75L271.36 292.82L271.98 292.91L272.57 293.01L273.11 293.12L273.63 293.24L274.11 293.39L274.56 293.54L274.98 293.71L275.36 293.91L275.72 294.11L276.05 294.34L276.36 294.59L276.64 294.86L276.89 295.15L277.12 295.46L277.33 295.79L277.51 296.15L277.68 296.53L277.83 296.94L277.96 297.37L278.07 297.83L278.17 298.32L278.25 298.84L278.32 299.38L278.37 299.96L278.42 300.57L278.45 301.2L278.47 301.87L278.49 302.58L278.5 303.31L278.5 304.09L278.5 304.82L278.49 305.53L278.47 306.22L278.45 306.88L278.42 307.52L278.39 308.13L278.34 308.72L278.29 309.28L278.24 309.82L278.17 310.34L278.1 310.84L278.02 311.31L277.93 311.77L277.83 312.2L277.73 312.61L277.61 313L277.49 313.37L277.36 313.72L277.22 314.05L277.07 314.36L276.91 314.66L276.74 314.93L276.56 315.19L276.37 315.43L276.17 315.65L275.96 315.85L275.74 316.04L275.51 316.21L275.27 316.37L275.02 316.51L274.75 316.64L274.48 316.75L274.19 316.84L273.89 316.92L273.58 316.99L273.26 317.05L272.92 317.09L272.57 317.12L272.21 317.14L271.84 317.14L271.49 317.15L271.15 317.15L270.84 317.16L270.54 317.17L270.26 317.19L269.99 317.2L269.74 317.23L269.51 317.25L269.3 317.28L269.1 317.32L268.93 317.36L268.76 317.4L268.62 317.45L268.49 317.51L268.37 317.57L268.28 317.63L268.2 317.7L268.13 317.78L268.09 317.86L268.06 317.94L268.04 318.04L268.04 318.14L268.06 318.24L268.1 318.35L268.15 318.47L268.21 318.6L268.29 318.73L268.39 318.87L268.51 319.02L268.63 319.17L268.78 319.33L268.94 319.5L269.11 319.68L269.31 319.86L269.51 320.05L269.73 320.25L269.97 320.46L270.22 320.68L270.49 320.91L270.77 321.14L270.98 321.31L271.17 321.48L271.36 321.64L271.54 321.81L271.71 321.98L271.87 322.15L272.02 322.32L272.17 322.5L272.3 322.69L272.43 322.89L272.56 323.09L272.67 323.31L272.78 323.54L272.88 323.78L272.98 324.04L273.07 324.32L273.15 324.61L273.23 324.92L273.3 325.25L273.37 325.61L273.43 325.98L273.49 326.38L273.54 326.81L273.59 327.26L273.64 327.75L273.68 328.26L273.72 328.8L273.75 329.37L273.78 329.98L273.81 330.62L273.83 331.3L273.86 332.02L273.88 332.78L273.89 333.57L273.91 334.41L273.92 335.29L273.94 336.21L273.95 337.18L273.96 338.2L273.97 339.27L274.24 354.99L270.37 358.59L270.13 358.81L269.89 359.04L269.67 359.25L269.45 359.46L269.25 359.67L269.05 359.88L268.87 360.08L268.69 360.29L268.52 360.49L268.36 360.69L268.21 360.89L268.07 361.09L267.93 361.29L267.81 361.49L267.69 361.7L267.57 361.91L267.47 362.12L267.37 362.34L267.28 362.56L267.19 362.78L267.11 363.02L267.04 363.26L266.97 363.5L266.91 363.76L266.85 364.02L266.8 364.29L266.75 364.57L266.71 364.87L266.68 365.17L266.64 365.48L266.62 365.81L266.59 366.15L266.57 366.5L266.55 366.86L266.54 367.24L266.53 367.64L266.52 368.05L266.51 368.48L266.51 368.92L266.51 369.38L266.5 370.08L266.48 370.8L266.44 371.55L266.39 372.32L266.33 373.12L266.25 373.94L266.16 374.78L266.05 375.66L265.92 376.56L265.79 377.48L265.63 378.44L265.46 379.43L265.28 380.44L265.07 381.49L264.86 382.56L264.62 383.67L264.37 384.81L264.11 385.99L263.83 387.19L263.53 388.44L263.21 389.71L262.88 391.03L262.53 392.37L262.16 393.76L261.78 395.18L261.38 396.64L260.96 398.14L260.52 399.68L260.07 401.26L259.59 402.89L259.1 404.55L258.59 406.25L258.07 408L257.52 409.79L256.96 411.63L256.37 413.5L255.77 415.43L255.15 417.4L254.51 419.42L253.85 421.48L253.55 422.41L253.25 423.34L252.95 424.28L252.66 425.23L252.36 426.18L252.07 427.14L251.78 428.1L251.49 429.07L251.2 430.03L250.92 431L250.64 431.96L250.37 432.93L250.09 433.89L249.83 434.84L249.56 435.79L249.3 436.74L249.05 437.68L248.8 438.61L248.56 439.53L248.32 440.44L248.09 441.34L247.86 442.22L247.64 443.1L247.43 443.95L247.23 444.79L247.03 445.62L246.84 446.43L246.66 447.21L246.48 447.98L246.32 448.73L246.16 449.45L246.01 450.15L245.87 450.83L245.74 451.48L245.63 452.11L245.52 452.71L245.42 453.27L245.33 453.81L245.25 454.32L245.19 454.8L244.98 456.37L244.8 457.92L244.65 459.45L244.52 460.97L244.41 462.47L244.34 463.95L244.29 465.41L244.26 466.86L244.26 468.29L244.29 469.7L244.34 471.09L244.42 472.47L244.53 473.83L244.66 475.17L244.82 476.49L245 477.8L245.21 479.09L245.45 480.37L245.71 481.62L246 482.86L246.32 484.09L246.66 485.29L247.03 486.48L247.42 487.66L247.84 488.81L248.29 489.95L248.76 491.08L249.26 492.19L249.79 493.28L250.34 494.35L250.92 495.41L251.52 496.46L252.16 497.48L252.81 498.5L253.5 499.49L254.21 500.47L254.94 501.44L255.71 502.38L256.5 503.32L257.31 504.23L258.16 505.14L259.02 506.01L259.89 506.85L260.78 507.66L261.68 508.44L262.59 509.18L263.51 509.9L264.45 510.58L265.39 511.23L266.35 511.84L267.33 512.43L268.31 512.98L269.3 513.5L270.31 513.99L271.33 514.45L272.35 514.87L273.39 515.26L274.44 515.62L275.5 515.95L276.57 516.24L277.65 516.5L278.74 516.73L279.84 516.93L280.94 517.09L282.06 517.22L283.19 517.32L284.32 517.38L285.47 517.41L286.62 517.41L287.78 517.37L288.95 517.3L290.13 517.2L291.32 517.06L292.51 516.89L293.71 516.69L294.92 516.45L296.13 516.18L297.36 515.87L298.59 515.53L299.82 515.16L301.88 514.47L303.86 513.7L305.77 512.86L307.62 511.95L309.39 510.97L311.1 509.91L312.73 508.79L314.3 507.59L315.79 506.32L317.22 504.97L318.58 503.56L319.86 502.07L321.08 500.51L322.23 498.87L323.31 497.16L324.32 495.38L325.26 493.53L326.13 491.6L326.94 489.6L327.67 487.53L328.34 485.38L328.93 483.16L329.46 480.86L329.92 478.49L330.31 476.05L330.63 473.53L330.88 470.94L331.07 468.27L331.18 465.53L331.23 462.71L331.21 459.82L331.12 456.85L330.96 453.81L330.73 450.69L330.44 447.5L330.07 444.24L329.64 440.89L329.14 437.47L328.57 433.98L327.94 430.41L327.83 429.82L327.71 429.2L327.59 428.56L327.46 427.9L327.34 427.22L327.2 426.52L327.07 425.8L326.93 425.06L326.79 424.31L326.65 423.54L326.5 422.76L326.35 421.96L326.2 421.15L326.04 420.33L325.89 419.5L325.73 418.65L325.57 417.81L325.41 416.95L325.25 416.09L325.09 415.22L324.93 414.35L324.76 413.47L324.6 412.6L324.44 411.72L324.27 410.84L324.11 409.97L323.95 409.1L323.78 408.23L323.62 407.36L323.46 406.5L323.3 405.65L323.14 404.8L322.98 403.96L322.83 403.14L322.68 402.32L322.52 401.51L322.37 400.72L322.23 399.94L322.08 399.18L321.94 398.43L321.36 395.31L320.81 392.26L320.29 389.27L319.8 386.36L319.34 383.5L318.92 380.71L318.53 377.98L318.17 375.31L317.84 372.69L317.55 370.12L317.29 367.61L317.06 365.14L316.86 362.72L316.69 360.34L316.56 358.01L316.46 355.71L316.39 353.45L316.35 351.23L316.35 349.04L316.38 346.88L316.44 344.74L316.53 342.64L316.66 340.56L316.82 338.49L317.01 336.45L317.23 334.43L317.49 332.42L317.78 330.42L318.1 328.43L318.46 326.45L318.84 324.48L319.26 322.51L319.72 320.54L320.2 318.57L320.72 316.6L321.27 314.62L321.86 312.64L322.47 310.65L323.12 308.64L323.81 306.62L324.31 305.16L324.81 303.74L325.31 302.37L325.8 301.03L326.29 299.73L326.77 298.47L327.25 297.24L327.73 296.05L328.22 294.89L328.7 293.75L329.18 292.65L329.67 291.57L330.16 290.52L330.65 289.5L331.15 288.49L331.66 287.51L332.17 286.55L332.69 285.6L333.21 284.68L333.75 283.76L334.3 282.87L334.86 281.98L335.43 281.11L336.01 280.24L336.61 279.39L337.22 278.54L337.85 277.69L338.49 276.85L339.15 276.01L339.83 275.17L340.53 274.34L341.24 273.49L341.98 272.65L342.74 271.8L343.52 270.94L344.33 270.08L345.15 269.2L346.01 268.32L346.89 267.42L347.79 266.51L348.63 265.68L349.48 264.86L350.32 264.07L351.16 263.29L352.01 262.52L352.86 261.78L353.71 261.05L354.56 260.34L355.41 259.64L356.26 258.96L357.12 258.3L357.97 257.66L358.83 257.04L359.69 256.43L360.55 255.83L361.41 255.26L362.27 254.7L363.14 254.16L364 253.64L364.87 253.13L365.73 252.64L366.6 252.17L367.47 251.72L368.34 251.28L369.22 250.86L370.09 250.46L370.97 250.08L371.84 249.71L372.72 249.36L373.6 249.02L374.48 248.71L375.36 248.41L376.24 248.13L377.12 247.87L378 247.62L378.89 247.39L379.78 247.18L380.66 246.99L381.55 246.81L382.44 246.65L384.11 246.39L385.78 246.17L387.43 246.01L389.06 245.89L390.69 245.82L392.29 245.79L393.88 245.82L395.46 245.89ZM259.55 322.64L259.13 322.79L258.72 323.02L258.35 323.3L258.01 323.65L257.71 324.07L257.61 324.28L257.5 324.56L257.4 324.91L257.29 325.33L257.2 325.82L257.1 326.36L257.01 326.94L256.92 327.58L256.84 328.25L256.77 328.95L256.7 329.68L256.64 330.43L256.59 331.19L256.55 331.96L256.51 332.74L256.25 339.8L269.04 339.8L269.57 346.06L269.62 346.68L269.67 347.12L269.72 347.36L269.76 347.43L269.8 347.32L269.83 347.05L269.86 346.61L269.89 346.01L269.91 345.26L269.93 344.35L269.94 343.31L269.96 342.13L269.97 340.81L269.97 339.37L269.97 337.8L269.94 335.38L269.91 333.24L269.86 331.36L269.81 329.72L269.74 328.3L269.65 327.09L269.54 326.07L269.4 325.22L269.24 324.53L269.05 323.98L268.83 323.55L268.58 323.23L268.29 323L267.95 322.84L267.57 322.74L267.29 322.7L267.02 322.68L266.76 322.69L266.52 322.72L266.3 322.77L266.1 322.84L265.91 322.94L265.74 323.05L265.6 323.18L265.47 323.33L265.37 323.5L265.28 323.69L265.22 323.89L265.19 324.11L265.18 324.34L265.17 324.58L265.15 324.8L265.11 325.02L265.07 325.23L265.01 325.43L264.94 325.61L264.85 325.78L264.76 325.93L264.66 326.07L264.54 326.19L264.42 326.29L264.29 326.37L264.15 326.42L264 326.46L263.84 326.47L263.71 326.46L263.58 326.42L263.45 326.37L263.32 326.29L263.2 326.19L263.09 326.08L262.98 325.94L262.88 325.8L262.79 325.64L262.71 325.47L262.64 325.28L262.59 325.09L262.54 324.89L262.52 324.69L262.51 324.47L262.47 324.02L262.34 323.63L262.14 323.29L261.88 323.02L261.56 322.8L261.21 322.64L260.82 322.55L260.4 322.52L259.98 322.55L259.55 322.64Z" id="b121LykLg"></path><path d="M261.71 335.53C264.64 338.47 267.17 335.8 265.98 331.27C264.91 327.01 263.18 326.87 261.04 330.6C259.85 332.87 259.98 333.93 261.71 335.53Z" id="aQCzzZT9e"></path><path d="M416.29 368.71C418.95 367.65 418.95 365.12 416.55 361.79C414.69 359.25 414.55 359.25 412.95 362.85C411.09 366.98 412.82 370.05 416.29 368.71Z" id="a2HFD4rQpb"></path></defs><g><g><g><use xlink:href="#b7IwqLUDWY" opacity="1" fill="#00e0c2" fill-opacity="1"></use><g><use xlink:href="#b7IwqLUDWY" opacity="1" fill-opacity="0" stroke="#000000" stroke-width="1" stroke-opacity="0"></use></g></g><g><use xlink:href="#b121LykLg" opacity="1" fill="#00e0c2" fill-opacity="1"></use><g><use xlink:href="#b121LykLg" opacity="1" fill-opacity="0" stroke="#000000" stroke-width="1" stroke-opacity="0"></use></g></g><g><use xlink:href="#aQCzzZT9e" opacity="1" fill="#00e0c2" fill-opacity="1"></use><g><use xlink:href="#aQCzzZT9e" opacity="1" fill-opacity="0" stroke="#000000" stroke-width="1" stroke-opacity="0"></use></g></g><g><use xlink:href="#a2HFD4rQpb" opacity="1" fill="#00e0c2" fill-opacity="1"></use><g><use xlink:href="#a2HFD4rQpb" opacity="1" fill-opacity="0" stroke="#000000" stroke-width="1" stroke-opacity="0"></use></g></g></g></g></svg>