<?xml version="1.0" encoding="UTF-8" standalone="no"?>
<!DOCTYPE svg PUBLIC "-//W3C//DTD SVG 1.1//EN" "http://www.w3.org/Graphics/SVG/1.1/DTD/svg11.dtd">
<svg version="1.1" xmlns="http://www.w3.org/2000/svg" xmlns:xlink="http://www.w3.org/1999/xlink" preserveAspectRatio="xMidYMid meet" viewBox="0 0 640 640" width="640" height="640"><defs><path d="M406.09 55.86C417.8 44.15 436.8 44.15 448.51 55.86C451.35 58.7 474.02 81.37 476.85 84.2C488.55 95.9 488.56 114.85 476.9 126.57C464.06 139.47 399.89 203.95 284.36 320C399.88 436.06 464.05 500.54 476.89 513.44C488.56 525.16 488.54 544.11 476.84 555.81C474 558.65 451.33 581.32 448.5 584.15C436.79 595.86 417.79 595.86 406.07 584.15C381.78 559.86 187.44 365.51 163.15 341.21C151.44 329.5 151.44 310.5 163.15 298.79C211.74 250.2 381.79 80.16 406.09 55.86Z" id="afZYGGwWv"></path></defs><g><g><g><use xlink:href="#afZYGGwWv" opacity="1" fill="#73dfc2" fill-opacity="1"></use><g><use xlink:href="#afZYGGwWv" opacity="1" fill-opacity="0" stroke="#000000" stroke-width="1" stroke-opacity="0"></use></g></g></g></g></svg>