<?xml version="1.0" encoding="UTF-8" standalone="no"?>
<!DOCTYPE svg PUBLIC "-//W3C//DTD SVG 1.1//EN" "http://www.w3.org/Graphics/SVG/1.1/DTD/svg11.dtd">
<svg version="1.1" xmlns="http://www.w3.org/2000/svg" xmlns:xlink="http://www.w3.org/1999/xlink" preserveAspectRatio="xMidYMid meet" viewBox="0 0 640 640" width="70" height="70"><defs><path d="M175.29 175.16C173.69 179.42 181.02 189.14 185.81 189.14C187.41 189.14 191.28 187.28 194.21 185.15C197.27 182.88 200.07 181.15 200.33 181.15C200.73 181.15 207.13 188.48 214.59 197.4C222.04 206.46 228.97 214.59 229.9 215.65C231.24 217.12 233.63 215.52 244.29 206.46C251.35 200.33 257.08 194.87 257.08 194.34C257.08 193.67 250.95 185.81 243.36 176.89C235.76 167.83 229.24 159.71 228.57 158.91C228.04 157.84 229.64 155.31 232.97 152.11C236.16 149.05 238.43 145.72 238.43 143.99C238.43 140.26 230.3 131.87 226.97 131.87C225.51 131.87 213.52 141.19 200.33 152.51C187.01 163.84 175.82 173.96 175.29 175.16Z" id="bbmaAsSdy"></path><path d="M305.65 171.86L306.02 171.9L306.39 171.96L306.75 172.03L307.11 172.12L307.47 172.22L307.82 172.34L308.17 172.47L308.51 172.62L308.84 172.78L309.17 172.95L309.49 173.13L309.8 173.33L310.11 173.53L310.41 173.75L310.7 173.99L310.98 174.23L311.26 174.48L311.52 174.74L311.78 175.01L312.02 175.3L312.26 175.59L312.48 175.88L312.69 176.19L312.9 176.51L313.09 176.83L313.27 177.16L313.43 177.5L313.59 177.84L313.73 178.19L313.85 178.55L313.97 178.91L314.07 179.27L314.15 179.64L314.22 180.02L314.28 180.4L314.32 180.78L314.34 181.16L314.35 181.55L314.35 181.81L314.34 182.06L314.33 182.31L314.31 182.55L314.29 182.79L314.26 183.03L314.23 183.26L314.18 183.49L314.14 183.72L314.08 183.94L314.02 184.16L313.95 184.39L313.87 184.61L313.78 184.83L313.68 185.05L313.58 185.28L313.47 185.5L313.34 185.73L313.21 185.95L313.07 186.18L312.92 186.41L312.75 186.65L312.58 186.88L312.4 187.12L312.2 187.37L311.99 187.62L311.77 187.87L311.54 188.13L311.29 188.4L311.04 188.67L310.77 188.95L310.48 189.23L310.18 189.52L309.87 189.82L309.55 190.13L309.21 190.45L308.85 190.77L308.48 191.11L308.09 191.45L307.69 191.81L301.03 197.8L334.07 236.43L340.75 244.29L347.28 251.97L353.65 259.46L359.86 266.76L365.92 273.89L371.81 280.82L377.55 287.57L383.13 294.14L388.55 300.52L393.82 306.71L398.92 312.72L403.86 318.53L408.65 324.16L413.27 329.61L417.74 334.86L422.04 339.93L426.18 344.81L430.16 349.5L433.99 354L437.65 358.31L441.14 362.43L444.48 366.36L447.65 370.1L450.67 373.65L453.52 377.01L456.2 380.18L458.73 383.15L461.09 385.93L463.28 388.53L465.32 390.93L467.18 393.13L468.89 395.14L470.43 396.96L471.81 398.59L473.02 400.02L474.06 401.26L474.94 402.3L475.66 403.15L476.21 403.8L476.59 404.26L477.16 405L477.69 405.75L478.2 406.52L478.68 407.31L479.14 408.11L479.56 408.92L479.96 409.74L480.33 410.58L480.67 411.43L480.98 412.28L481.27 413.14L481.53 414.02L481.75 414.9L481.95 415.78L482.13 416.67L482.27 417.56L482.39 418.46L482.48 419.36L482.54 420.26L482.57 421.16L482.57 422.06L482.55 422.96L482.49 423.86L482.41 424.76L482.3 425.65L482.16 426.53L482 427.42L481.8 428.29L481.58 429.16L481.33 430.02L481.05 430.87L480.74 431.71L480.4 432.54L480.04 433.35L479.65 434.16L479.23 434.95L478.78 435.73L478.3 436.49L477.79 437.23L477.26 437.96L473.93 442.49L478.72 447.42L479.14 447.85L479.54 448.27L479.92 448.67L480.27 449.06L480.61 449.43L480.92 449.79L481.22 450.14L481.49 450.48L481.75 450.81L481.98 451.13L482.2 451.44L482.39 451.74L482.56 452.04L482.72 452.33L482.85 452.61L482.97 452.88L483.06 453.15L483.14 453.42L483.2 453.68L483.23 453.95L483.25 454.2L483.25 454.46L483.23 454.72L483.19 454.98L483.13 455.23L483.05 455.49L482.96 455.75L482.84 456.02L482.71 456.29L482.56 456.56L482.39 456.84L482.2 457.12L482 457.41L481.77 457.71L481.53 458.01L481.27 458.32L480.99 458.65L480.7 458.98L480.38 459.32L480.05 459.67L476.46 463.4L482.05 469.66L482.36 470.02L482.67 470.37L482.96 470.71L483.24 471.04L483.51 471.36L483.77 471.68L484.02 471.99L484.26 472.3L484.48 472.6L484.7 472.89L484.91 473.18L485.11 473.46L485.3 473.74L485.48 474.01L485.65 474.29L485.81 474.55L485.97 474.82L486.11 475.08L486.25 475.33L486.38 475.59L486.5 475.84L486.61 476.1L486.72 476.35L486.82 476.6L486.91 476.85L486.99 477.09L487.07 477.34L487.14 477.59L487.2 477.84L487.26 478.09L487.31 478.34L487.35 478.6L487.39 478.85L487.42 479.11L487.45 479.37L487.47 479.63L487.49 479.9L487.5 480.17L487.51 480.44L487.51 480.72L487.52 481.04L487.53 481.35L487.56 481.67L487.59 481.98L487.64 482.3L487.71 482.62L487.78 482.94L487.88 483.27L487.99 483.61L488.12 483.97L488.28 484.33L488.45 484.71L488.64 485.1L488.86 485.51L489.1 485.94L489.37 486.38L489.66 486.85L489.98 487.35L490.33 487.87L490.71 488.41L491.12 488.99L491.56 489.59L492.04 490.22L492.55 490.89L493.09 491.6L493.67 492.34L494.29 493.12L494.95 493.94L495.65 494.8L496.39 495.7L497.17 496.65L498 497.65L498.87 498.69L499.78 499.79L500.74 500.93L501.75 502.13L502.81 503.39L503.92 504.7L505.08 506.06L506.29 507.49L508.09 509.59L509.8 511.59L511.42 513.48L512.96 515.29L514.42 517L515.8 518.62L517.11 520.16L518.34 521.61L519.5 522.98L520.59 524.28L521.61 525.49L522.57 526.64L523.46 527.71L524.29 528.72L525.06 529.66L525.77 530.54L526.42 531.36L527.02 532.12L527.57 532.83L528.07 533.48L528.52 534.09L528.93 534.65L529.29 535.17L529.61 535.65L529.89 536.09L530.13 536.49L530.33 536.87L530.51 537.21L530.65 537.53L530.76 537.82L530.84 538.09L530.9 538.34L530.93 538.57L530.94 538.8L530.93 539.01L530.91 539.21L530.87 539.41L530.81 539.6L530.74 539.8L530.67 539.99L530.49 540.4L530.31 540.78L530.12 541.12L529.91 541.42L529.7 541.68L529.46 541.9L529.21 542.07L528.94 542.21L528.66 542.29L528.35 542.34L528.02 542.33L527.67 542.28L527.29 542.17L526.88 542.02L526.45 541.81L525.99 541.55L525.49 541.24L524.97 540.87L524.41 540.44L523.81 539.96L523.18 539.42L522.5 538.81L521.79 538.14L521.04 537.41L520.24 536.62L519.4 535.76L518.52 534.83L517.59 533.84L516.6 532.77L515.57 531.64L514.49 530.43L513.35 529.15L512.16 527.8L510.91 526.37L509.61 524.87L508.24 523.28L506.82 521.62L505.33 519.88L503.78 518.06L502.16 516.15L500.76 514.5L499.4 512.92L498.11 511.4L496.87 509.96L495.69 508.58L494.56 507.27L493.48 506.02L492.45 504.84L491.47 503.71L490.53 502.65L489.64 501.64L488.8 500.69L488 499.79L487.24 498.95L486.51 498.16L485.83 497.42L485.18 496.73L484.57 496.09L483.99 495.49L483.45 494.94L482.94 494.43L482.45 493.96L481.99 493.54L481.56 493.15L481.16 492.8L480.78 492.49L480.42 492.21L480.08 491.97L479.76 491.76L479.46 491.57L479.18 491.42L478.91 491.3L478.65 491.2L478.41 491.12L478.18 491.07L477.95 491.04L477.74 491.03L477.53 491.04L477.32 491.07L477.12 491.11L476.93 491.15L476.75 491.17L476.56 491.2L476.37 491.21L476.19 491.22L476.01 491.22L475.82 491.21L475.63 491.2L475.45 491.17L475.26 491.14L475.07 491.09L474.87 491.04L474.68 490.97L474.48 490.9L474.28 490.82L474.07 490.72L473.86 490.61L473.64 490.5L473.42 490.37L473.19 490.23L472.96 490.07L472.72 489.91L472.47 489.73L472.22 489.54L471.96 489.33L471.69 489.11L471.41 488.88L471.13 488.63L470.83 488.37L470.53 488.09L470.21 487.8L469.89 487.49L469.55 487.17L469.21 486.83L468.85 486.48L468.48 486.11L468.09 485.72L467.7 485.31L467.29 484.89L466.87 484.45L459.67 476.99L456.34 479.65L456 479.92L455.66 480.16L455.34 480.39L455.02 480.61L454.71 480.81L454.41 481L454.11 481.17L453.82 481.32L453.53 481.46L453.25 481.58L452.98 481.68L452.71 481.77L452.44 481.84L452.18 481.89L451.91 481.93L451.65 481.95L451.39 481.95L451.13 481.94L450.87 481.9L450.62 481.85L450.36 481.78L450.09 481.69L449.83 481.59L449.56 481.47L449.29 481.32L449.02 481.16L448.74 480.98L448.46 480.78L448.17 480.57L447.88 480.33L447.58 480.07L447.27 479.79L446.95 479.5L446.63 479.18L446.3 478.84L445.96 478.49L445.61 478.11L445.24 477.71L444.87 477.3L444.49 476.86L439.96 471.53L434.9 474.19L434.38 474.45L433.85 474.69L433.3 474.91L432.74 475.13L432.17 475.33L431.59 475.52L431 475.69L430.39 475.86L429.78 476.01L429.16 476.14L428.53 476.27L427.9 476.38L427.25 476.48L426.61 476.56L425.96 476.63L425.3 476.69L424.64 476.74L423.98 476.78L423.32 476.8L422.66 476.81L422 476.8L421.34 476.79L420.68 476.76L420.02 476.71L419.37 476.66L418.72 476.59L418.08 476.51L417.44 476.42L416.81 476.31L416.19 476.2L415.57 476.07L414.96 475.92L414.37 475.77L413.78 475.6L413.2 475.42L412.64 475.22L412.09 475.02L411.55 474.8L411.03 474.57L410.52 474.33L410.02 474.07L409.53 473.8L409.05 473.53L408.56 473.25L408.07 472.94L407.57 472.6L407.06 472.24L406.52 471.83L405.96 471.38L405.37 470.88L404.73 470.32L404.06 469.69L403.34 469L402.56 468.24L401.72 467.39L400.82 466.45L399.85 465.42L398.8 464.3L397.67 463.06L396.45 461.72L395.14 460.26L393.74 458.68L392.23 456.96L390.61 455.12L388.88 453.13L387.03 450.99L385.05 448.7L382.95 446.25L380.71 443.64L378.32 440.85L375.79 437.89L373.11 434.74L370.27 431.41L367.27 427.88L364.1 424.15L360.75 420.21L357.23 416.06L353.52 411.69L349.62 407.09L345.52 402.26L339.4 395.05L333.45 388.04L327.68 381.25L322.09 374.66L316.67 368.28L311.43 362.11L306.35 356.14L301.45 350.37L296.71 344.81L292.15 339.44L287.75 334.27L283.51 329.29L279.44 324.51L275.53 319.92L271.78 315.53L268.19 311.32L264.76 307.3L261.48 303.47L258.36 299.82L255.39 296.35L252.58 293.07L249.92 289.97L247.41 287.04L245.04 284.29L242.83 281.72L240.75 279.32L238.83 277.09L237.04 275.04L235.4 273.15L233.9 271.43L232.54 269.87L231.31 268.48L230.23 267.25L229.27 266.18L228.45 265.28L227.76 264.53L227.21 263.93L226.78 263.49L226.48 263.21L226.31 263.07L226.25 263.03L226.19 263L226.12 262.98L226.05 262.97L225.97 262.96L225.88 262.96L225.79 262.97L225.68 262.98L225.58 263L225.47 263.03L225.35 263.06L225.23 263.1L225.1 263.14L224.96 263.19L224.83 263.25L224.68 263.31L224.54 263.38L224.39 263.46L224.23 263.53L224.08 263.62L223.91 263.71L223.75 263.8L223.58 263.9L223.41 264.01L223.24 264.12L223.06 264.23L222.88 264.35L222.7 264.48L222.52 264.6L222.34 264.74L222.15 264.87L221.96 265.01L221.78 265.16L221.59 265.31L221.4 265.46L221.21 265.61L221.02 265.77L220.83 265.93L220.64 266.1L220.45 266.27L219.97 266.68L219.5 267.07L219.04 267.45L218.59 267.81L218.14 268.15L217.71 268.47L217.27 268.78L216.85 269.07L216.43 269.34L216.02 269.59L215.61 269.83L215.21 270.05L214.81 270.26L214.42 270.44L214.03 270.61L213.65 270.77L213.28 270.9L212.9 271.02L212.53 271.13L212.17 271.21L211.81 271.28L211.45 271.33L211.1 271.37L210.75 271.39L210.4 271.39L210.06 271.38L209.72 271.35L209.38 271.3L209.04 271.24L208.7 271.16L208.37 271.06L208.03 270.95L207.7 270.82L207.37 270.67L207.04 270.51L206.71 270.33L206.38 270.14L206.05 269.93L205.72 269.71L205.39 269.46L205.01 269.17L204.65 268.87L204.31 268.56L203.98 268.25L203.68 267.93L203.39 267.6L203.12 267.27L202.87 266.93L202.64 266.58L202.42 266.24L202.23 265.88L202.05 265.52L201.9 265.16L201.76 264.79L201.64 264.42L201.53 264.05L201.45 263.67L201.39 263.29L201.34 262.91L201.32 262.52L201.31 262.13L201.32 261.74L201.35 261.35L201.4 260.96L201.46 260.56L201.55 260.17L201.65 259.77L201.78 259.37L201.92 258.98L202.08 258.58L202.26 258.18L202.46 257.79L202.68 257.39L202.91 257L203.17 256.61L203.44 256.22L203.73 255.83L204.05 255.44L204.38 255.06L204.73 254.68L204.92 254.48L205.18 254.21L205.52 253.89L205.93 253.5L206.41 253.05L206.96 252.55L207.58 251.99L208.26 251.38L209.01 250.71L209.82 249.99L210.69 249.22L211.62 248.4L212.61 247.54L213.65 246.63L214.74 245.67L215.89 244.67L217.09 243.63L218.34 242.54L219.64 241.42L220.98 240.26L222.36 239.06L223.79 237.83L225.26 236.57L226.77 235.27L228.31 233.94L229.89 232.58L231.51 231.19L233.15 229.78L234.83 228.34L236.53 226.88L238.27 225.4L240.03 223.89L241.81 222.37L243.61 220.82L245.44 219.26L247.28 217.69L249.14 216.1L251.02 214.49L252.91 212.88L254.81 211.26L257.48 209L260.06 206.82L262.55 204.73L264.94 202.71L267.25 200.77L269.47 198.9L271.61 197.11L273.66 195.39L275.64 193.74L277.53 192.17L279.34 190.67L281.08 189.23L282.74 187.86L284.33 186.56L285.84 185.32L287.29 184.14L288.66 183.03L289.97 181.98L291.21 180.99L292.39 180.05L293.51 179.18L294.56 178.36L295.55 177.59L296.49 176.88L297.37 176.23L298.2 175.62L298.97 175.06L299.69 174.55L300.36 174.09L300.98 173.68L301.56 173.31L302.09 172.99L302.58 172.71L303.02 172.47L303.43 172.27L303.79 172.1L304.12 171.98L304.41 171.9L304.67 171.84L304.89 171.83L305.27 171.84L305.65 171.86ZM293.07 204.29L292.47 204.73L291.68 205.33L290.72 206.08L289.6 206.97L288.34 207.99L286.93 209.14L285.4 210.4L283.75 211.76L282 213.22L280.15 214.77L278.22 216.39L276.21 218.08L274.15 219.83L272.03 221.62L269.86 223.46L267.67 225.33L265.46 227.22L263.24 229.12L261.02 231.03L258.81 232.93L256.62 234.81L254.47 236.67L252.36 238.5L250.31 240.28L248.33 242.01L246.42 243.68L244.59 245.28L242.87 246.81L241.25 248.24L239.76 249.57L238.39 250.8L237.16 251.91L236.09 252.89L235.18 253.74L234.44 254.45L233.88 255L233.52 255.39L233.37 255.61L233.38 255.85L233.55 256.25L233.85 256.79L234.29 257.48L234.85 258.29L235.52 259.23L236.31 260.28L237.2 261.44L238.19 262.69L239.26 264.03L240.41 265.45L241.63 266.94L242.92 268.49L244.27 270.1L245.67 271.75L247.1 273.44L248.58 275.15L250.08 276.89L251.6 278.64L253.13 280.39L254.67 282.13L256.2 283.86L257.73 285.57L259.23 287.24L260.71 288.87L262.16 290.46L263.57 291.99L264.93 293.45L266.23 294.84L267.48 296.15L268.65 297.36L269.74 298.47L270.75 299.48L271.67 300.37L272.48 301.13L273.19 301.76L273.78 302.25L274.25 302.58L274.59 302.76L274.79 302.76L274.87 302.72L274.96 302.66L275.07 302.59L275.18 302.51L275.32 302.41L275.46 302.31L275.62 302.19L275.78 302.07L275.97 301.93L276.16 301.79L276.36 301.63L276.57 301.46L276.8 301.29L277.03 301.11L277.27 300.91L277.53 300.71L277.79 300.5L278.06 300.29L278.34 300.06L278.62 299.83L278.91 299.59L279.22 299.35L279.52 299.1L279.84 298.84L280.16 298.58L280.48 298.31L280.81 298.03L281.15 297.75L281.49 297.47L281.83 297.18L282.18 296.89L282.54 296.59L282.89 296.29L283.25 295.99L283.61 295.68L283.98 295.37L284.34 295.06L284.71 294.74L285.08 294.42L285.45 294.11L286.13 293.51L286.79 292.94L287.42 292.4L288.03 291.89L288.6 291.41L289.16 290.95L289.69 290.52L290.2 290.12L290.68 289.74L291.15 289.39L291.59 289.06L292.01 288.76L292.42 288.49L292.8 288.24L293.17 288.01L293.52 287.81L293.86 287.64L294.18 287.48L294.48 287.35L294.77 287.25L295.05 287.16L295.32 287.1L295.57 287.06L295.81 287.05L296.05 287.05L296.27 287.08L296.49 287.13L296.7 287.2L296.9 287.29L297.1 287.4L297.29 287.53L297.48 287.68L297.66 287.85L297.84 288.04L298.02 288.25L298.19 288.48L298.37 288.73L298.55 288.99L298.72 289.28L298.9 289.58L298.99 289.72L299.07 289.85L299.14 289.99L299.2 290.12L299.25 290.26L299.3 290.39L299.34 290.53L299.36 290.66L299.38 290.8L299.39 290.94L299.39 291.07L299.38 291.22L299.36 291.36L299.33 291.5L299.29 291.65L299.24 291.81L299.18 291.96L299.11 292.12L299.03 292.29L298.93 292.46L298.83 292.63L298.71 292.81L298.58 293L298.44 293.19L298.29 293.39L298.12 293.6L297.94 293.81L297.75 294.03L297.55 294.26L297.33 294.5L297.1 294.75L296.85 295.01L296.59 295.27L296.32 295.55L296.03 295.84L295.73 296.13L295.41 296.44L295.08 296.76L294.73 297.09L294.37 297.44L294.12 297.67L293.86 297.9L293.6 298.14L293.34 298.38L293.07 298.63L292.8 298.88L292.52 299.12L292.24 299.38L291.96 299.63L291.68 299.88L291.4 300.14L291.11 300.39L290.83 300.65L290.54 300.91L290.25 301.16L289.97 301.42L289.68 301.67L289.4 301.93L289.11 302.18L288.83 302.43L288.55 302.68L288.27 302.93L287.99 303.17L287.72 303.41L287.45 303.65L287.18 303.88L286.91 304.11L286.65 304.34L286.4 304.56L286.15 304.78L285.9 304.99L285.66 305.2L285.43 305.4L285.2 305.59L284.98 305.78L284.77 305.97L284.56 306.14L284.36 306.31L284.17 306.47L283.98 306.63L283.62 306.93L283.28 307.21L282.96 307.49L282.65 307.74L282.37 307.99L282.1 308.23L281.86 308.46L281.64 308.68L281.43 308.9L281.25 309.12L281.1 309.33L280.96 309.54L280.85 309.75L280.76 309.96L280.69 310.18L280.65 310.4L280.63 310.62L280.64 310.86L280.68 311.1L280.74 311.35L280.82 311.62L280.93 311.9L281.07 312.19L281.24 312.51L281.43 312.83L281.66 313.18L281.91 313.55L282.19 313.94L282.5 314.35L282.84 314.79L283.21 315.26L283.61 315.75L284.04 316.28L284.51 316.83L285 317.41L285.53 318.03L286.09 318.69L286.69 319.38L287.32 320.11L287.98 320.88L292.91 326.61L308.62 313.15L309.27 312.61L309.91 312.06L310.55 311.53L311.18 311L311.8 310.47L312.42 309.95L313.03 309.44L313.63 308.94L314.22 308.45L314.8 307.96L315.38 307.48L315.94 307.02L316.49 306.56L317.03 306.11L317.56 305.68L318.07 305.25L318.57 304.84L319.06 304.44L319.54 304.05L320 303.68L320.44 303.32L320.87 302.97L321.28 302.64L321.68 302.33L322.05 302.03L322.42 301.74L322.76 301.47L323.08 301.22L323.38 300.99L323.67 300.77L323.93 300.57L324.17 300.4L324.39 300.24L324.59 300.1L324.76 299.98L324.91 299.88L325.04 299.8L325.14 299.75L325.22 299.71L325.27 299.7L325.42 299.71L325.56 299.73L325.71 299.77L325.86 299.82L326.02 299.88L326.18 299.96L326.34 300.04L326.5 300.14L326.66 300.25L326.82 300.37L326.98 300.5L327.14 300.64L327.3 300.78L327.46 300.94L327.62 301.1L327.77 301.26L327.92 301.44L328.07 301.61L328.21 301.8L328.35 301.98L328.49 302.17L328.62 302.36L328.74 302.55L328.86 302.75L328.97 302.95L329.08 303.14L329.17 303.34L329.26 303.53L329.34 303.72L329.41 303.91L329.48 304.1L329.53 304.29L329.57 304.47L329.6 304.64L329.62 304.81L329.63 304.98L329.63 305.13L329.61 305.28L329.58 305.43L329.54 305.56L329.49 305.65L329.43 305.76L329.33 305.89L329.22 306.04L329.08 306.21L328.92 306.39L328.73 306.6L328.53 306.82L328.3 307.05L328.05 307.31L327.79 307.58L327.5 307.86L327.19 308.17L326.87 308.48L326.52 308.81L326.16 309.15L325.79 309.51L325.39 309.88L324.98 310.26L324.56 310.66L324.12 311.06L323.67 311.48L323.2 311.9L322.72 312.34L322.23 312.79L321.72 313.24L321.2 313.71L320.68 314.18L320.14 314.66L319.59 315.15L319.03 315.65L318.47 316.15L317.89 316.66L317.31 317.17L316.72 317.69L316.13 318.21L315.52 318.74L314.92 319.27L314.3 319.81L313.69 320.35L298.37 333.27L305.29 341.13L305.57 341.44L305.85 341.76L306.13 342.07L306.4 342.38L306.67 342.69L306.94 342.99L307.2 343.29L307.46 343.58L307.72 343.87L307.98 344.15L308.23 344.43L308.47 344.7L308.72 344.97L308.96 345.23L309.19 345.48L309.42 345.73L309.64 345.97L309.86 346.21L310.07 346.43L310.27 346.65L310.47 346.86L310.66 347.07L310.85 347.26L311.03 347.45L311.2 347.62L311.37 347.79L311.52 347.94L311.67 348.09L311.81 348.23L311.94 348.36L312.07 348.47L312.18 348.58L312.29 348.67L312.38 348.75L312.47 348.82L312.55 348.88L312.62 348.92L312.67 348.96L312.72 348.98L312.75 348.98L312.78 348.98L312.82 348.96L312.88 348.92L312.95 348.88L313.04 348.82L313.14 348.75L313.25 348.67L313.38 348.57L313.52 348.47L313.67 348.35L313.84 348.22L314.01 348.08L314.2 347.94L314.4 347.78L314.61 347.61L314.83 347.43L315.06 347.24L315.31 347.04L315.56 346.84L315.82 346.62L316.09 346.4L316.36 346.16L316.65 345.92L316.94 345.68L317.25 345.42L317.56 345.16L317.87 344.89L318.2 344.61L318.52 344.33L318.86 344.04L319.2 343.74L319.55 343.44L319.9 343.14L320.26 342.82L320.62 342.51L320.98 342.19L321.35 341.86L321.72 341.53L322.1 341.2L322.48 340.86L322.96 340.44L323.43 340.03L323.89 339.63L324.35 339.24L324.78 338.87L325.21 338.51L325.63 338.17L326.04 337.83L326.44 337.51L326.82 337.2L327.2 336.9L327.57 336.62L327.93 336.34L328.28 336.08L328.62 335.83L328.95 335.6L329.27 335.37L329.59 335.16L329.89 334.96L330.19 334.76L330.47 334.59L330.75 334.42L331.03 334.26L331.29 334.12L331.55 333.98L331.8 333.86L332.04 333.75L332.27 333.65L332.5 333.56L332.72 333.48L332.94 333.41L333.15 333.35L333.35 333.31L333.54 333.27L333.73 333.24L333.92 333.23L334.1 333.22L334.27 333.23L334.44 333.24L334.6 333.27L334.95 333.32L335.28 333.39L335.59 333.47L335.88 333.56L336.15 333.66L336.4 333.77L336.63 333.89L336.84 334.02L337.03 334.16L337.2 334.31L337.35 334.47L337.49 334.65L337.6 334.83L337.69 335.02L337.77 335.22L337.82 335.43L337.86 335.64L337.87 335.87L337.87 336.1L337.85 336.35L337.8 336.6L337.74 336.86L337.66 337.12L337.56 337.4L337.44 337.68L337.31 337.97L337.15 338.27L336.97 338.57L336.78 338.89L336.57 339.2L336.33 339.53L336.08 339.86L335.81 340.2L335.52 340.54L335.22 340.89L334.89 341.25L334.55 341.61L334.18 341.97L333.8 342.35L333.4 342.72L333.19 342.91L332.97 343.1L332.74 343.29L332.51 343.5L332.27 343.7L332.03 343.92L331.78 344.13L331.53 344.36L331.27 344.58L331.01 344.82L330.74 345.05L330.48 345.29L330.2 345.53L329.93 345.77L329.66 346.02L329.38 346.27L329.1 346.51L328.82 346.77L328.54 347.02L328.25 347.27L327.97 347.52L327.69 347.77L327.41 348.03L327.13 348.28L326.85 348.53L326.57 348.77L326.29 349.02L326.02 349.27L325.75 349.51L325.48 349.75L325.21 349.98L324.95 350.22L324.69 350.45L324.43 350.67L324.18 350.89L323.94 351.11L323.7 351.32L323.46 351.52L323.23 351.72L323.01 351.91L317.82 356.71L324.21 363.77L324.48 364.07L324.75 364.36L325.01 364.65L325.28 364.94L325.55 365.23L325.81 365.51L326.07 365.78L326.33 366.05L326.58 366.32L326.84 366.58L327.09 366.83L327.33 367.09L327.58 367.33L327.82 367.57L328.05 367.8L328.28 368.03L328.51 368.25L328.73 368.46L328.94 368.67L329.15 368.86L329.36 369.06L329.56 369.24L329.75 369.41L329.93 369.58L330.11 369.74L330.28 369.89L330.45 370.03L330.61 370.16L330.75 370.29L330.9 370.4L331.03 370.5L331.15 370.6L331.27 370.68L331.37 370.75L331.47 370.82L331.56 370.87L331.63 370.91L331.7 370.94L331.76 370.96L331.8 370.96L331.86 370.95L331.95 370.92L332.06 370.86L332.2 370.79L332.36 370.69L332.54 370.57L332.74 370.44L332.97 370.28L333.22 370.11L333.48 369.91L333.77 369.7L334.08 369.47L334.41 369.23L334.75 368.96L335.11 368.69L335.49 368.39L335.89 368.08L336.31 367.76L336.73 367.42L337.18 367.07L337.64 366.7L338.11 366.32L338.6 365.93L339.1 365.52L339.61 365.11L340.14 364.68L340.67 364.24L341.22 363.8L341.78 363.34L342.35 362.87L342.92 362.39L343.51 361.91L344.1 361.42L344.71 360.91L345.32 360.41L345.93 359.89L346.55 359.37L347.18 358.84L347.81 358.31L348.45 357.78L349.37 356.99L350.26 356.24L351.12 355.52L351.94 354.83L352.74 354.16L353.5 353.53L354.23 352.92L354.94 352.35L355.61 351.8L356.26 351.28L356.88 350.78L357.47 350.31L358.04 349.87L358.58 349.45L359.1 349.06L359.6 348.69L360.07 348.35L360.52 348.03L360.95 347.73L361.35 347.45L361.74 347.2L362.11 346.97L362.46 346.75L362.79 346.56L363.1 346.39L363.4 346.24L363.68 346.11L363.94 346L364.19 345.9L364.43 345.82L364.65 345.76L364.86 345.72L365.06 345.69L365.25 345.68L365.42 345.69L365.59 345.71L365.74 345.74L365.89 345.79L366.03 345.85L366.17 345.92L366.5 346.14L366.82 346.36L367.1 346.58L367.37 346.8L367.6 347.03L367.81 347.26L367.98 347.49L368.13 347.74L368.25 347.99L368.34 348.24L368.4 348.51L368.42 348.79L368.42 349.08L368.38 349.38L368.3 349.69L368.19 350.03L368.04 350.37L367.86 350.73L367.64 351.12L367.38 351.51L367.09 351.93L366.75 352.38L366.37 352.84L365.96 353.32L365.5 353.83L365 354.37L364.45 354.93L363.86 355.52L363.23 356.14L362.55 356.78L361.83 357.46L361.06 358.17L360.24 358.91L359.37 359.69L358.45 360.5L357.49 361.34L356.47 362.22L355.4 363.14L354.29 364.1L353.11 365.1L351.95 366.09L350.85 367.02L349.8 367.91L348.81 368.76L347.87 369.56L346.99 370.32L346.15 371.04L345.37 371.72L344.63 372.36L343.95 372.96L343.3 373.53L342.71 374.07L342.15 374.57L341.64 375.05L341.17 375.49L340.75 375.91L340.36 376.3L340 376.67L339.69 377.02L339.41 377.34L339.16 377.64L338.95 377.92L338.77 378.19L338.62 378.44L338.5 378.68L338.41 378.9L338.34 379.11L338.3 379.31L338.29 379.51L338.3 379.69L338.33 379.87L338.38 380.05L338.45 380.22L338.54 380.4L338.64 380.57L338.77 380.74L338.9 380.92L339.06 381.1L339.22 381.29L339.39 381.48L339.5 381.61L339.61 381.74L339.72 381.88L339.85 382.02L339.98 382.17L340.11 382.33L340.25 382.49L340.4 382.66L340.55 382.84L340.7 383.02L340.86 383.2L341.03 383.39L341.2 383.59L341.37 383.79L341.55 383.99L341.73 384.2L341.91 384.41L342.09 384.63L342.28 384.84L342.47 385.06L342.67 385.29L342.86 385.51L343.06 385.74L343.26 385.97L343.46 386.21L343.66 386.44L343.86 386.67L344.06 386.91L344.27 387.15L344.47 387.39L344.67 387.62L344.88 387.86L345.08 388.1L345.28 388.34L345.48 388.57L345.68 388.81L345.87 389.05L346.07 389.28L346.26 389.51L346.45 389.74L351.25 395.2L361.64 386.68L362.41 386.04L363.17 385.44L363.89 384.86L364.6 384.3L365.28 383.78L365.94 383.28L366.57 382.81L367.18 382.37L367.77 381.95L368.34 381.56L368.88 381.2L369.4 380.87L369.91 380.56L370.39 380.27L370.85 380.02L371.29 379.79L371.71 379.58L372.11 379.4L372.5 379.25L372.86 379.12L373.21 379.02L373.53 378.94L373.84 378.89L374.13 378.86L374.41 378.86L374.67 378.89L374.91 378.93L375.13 379.01L375.34 379.1L375.54 379.22L375.72 379.37L375.88 379.54L376.03 379.73L376.16 379.95L376.28 380.19L376.39 380.46L376.48 380.75L376.57 381.06L376.63 381.39L376.69 381.75L376.7 381.94L376.68 382.16L376.63 382.4L376.54 382.66L376.42 382.94L376.28 383.24L376.1 383.57L375.89 383.91L375.66 384.27L375.39 384.65L375.1 385.04L374.79 385.45L374.45 385.88L374.08 386.32L373.69 386.77L373.28 387.24L372.84 387.72L372.39 388.21L371.91 388.71L371.41 389.23L370.9 389.75L370.36 390.28L369.81 390.82L369.24 391.36L368.65 391.91L368.05 392.47L367.43 393.03L366.81 393.59L366.16 394.16L365.51 394.73L364.84 395.3L364.16 395.88L363.47 396.45L362.78 397.02L362.07 397.59L361.36 398.16L360.64 398.73L359.91 399.29L359.18 399.85L358.44 400.4L358.33 400.5L358.22 400.6L358.12 400.7L358.03 400.81L357.95 400.92L357.89 401.03L357.83 401.14L357.78 401.26L357.74 401.38L357.71 401.5L357.7 401.64L357.7 401.77L357.71 401.92L357.73 402.07L357.76 402.23L357.81 402.39L357.87 402.57L357.94 402.75L358.02 402.94L358.12 403.15L358.24 403.36L358.37 403.58L358.51 403.82L358.67 404.06L358.85 404.32L359.04 404.59L359.24 404.88L359.46 405.17L359.7 405.49L359.96 405.81L360.23 406.15L360.52 406.51L360.83 406.88L361.15 407.27L361.5 407.68L361.86 408.11L362.24 408.55L362.64 409.01L363.06 409.49L363.5 409.99L370.56 418.11L397.74 394.41L393.34 362.7L393.16 361.4L392.98 360.11L392.81 358.83L392.64 357.56L392.47 356.3L392.3 355.06L392.14 353.84L391.98 352.63L391.82 351.44L391.66 350.27L391.51 349.12L391.37 347.99L391.22 346.89L391.08 345.8L390.94 344.75L390.81 343.71L390.68 342.71L390.56 341.73L390.44 340.78L390.33 339.86L390.22 338.97L390.11 338.11L390.01 337.29L389.92 336.5L389.83 335.75L389.74 335.03L389.66 334.35L389.59 333.71L389.52 333.11L389.46 332.55L389.41 332.03L389.36 331.55L389.32 331.12L389.28 330.73L389.25 330.39L389.23 330.09L389.21 329.84L389.21 329.65L389.2 329.5L389.21 329.4L389.36 329.43L389.73 329.73L390.32 330.29L391.12 331.09L392.11 332.13L393.28 333.38L394.62 334.83L396.12 336.48L397.77 338.31L399.56 340.3L401.47 342.45L403.5 344.73L405.63 347.14L407.85 349.66L410.15 352.28L412.52 354.99L414.95 357.78L417.42 360.62L419.93 363.51L422.46 366.43L425 369.38L427.55 372.33L430.08 375.28L432.6 378.21L435.08 381.11L437.51 383.96L439.89 386.76L442.21 389.48L444.44 392.12L446.58 394.66L448.63 397.1L450.56 399.4L452.37 401.58L454.04 403.6L455.57 405.46L456.93 407.14L458.13 408.64L459.15 409.93L459.98 411.01L460.61 411.85L460.85 412.22L461.08 412.59L461.31 412.97L461.52 413.36L461.72 413.76L461.91 414.16L462.09 414.57L462.26 414.98L462.42 415.4L462.57 415.83L462.71 416.25L462.84 416.69L462.95 417.12L463.06 417.56L463.15 418.01L463.23 418.45L463.3 418.9L463.37 419.35L463.41 419.8L463.45 420.25L463.48 420.7L463.5 421.14L463.5 421.59L463.49 422.04L463.47 422.48L463.44 422.93L463.4 423.37L463.35 423.8L463.29 424.24L463.21 424.67L463.12 425.09L463.02 425.51L462.91 425.93L462.79 426.33L462.65 426.74L462.51 427.13L462.35 427.52L462.18 427.9L462 428.27L461.8 428.64L461.56 429.01L461.22 429.46L460.79 429.98L460.26 430.56L459.65 431.2L458.96 431.89L458.2 432.64L457.36 433.43L456.47 434.27L455.51 435.14L454.5 436.05L453.44 436.99L452.34 437.96L451.2 438.94L450.02 439.95L448.82 440.97L447.59 442L446.35 443.03L445.09 444.07L443.82 445.1L442.55 446.13L441.29 447.15L440.03 448.15L438.78 449.13L437.55 450.09L436.34 451.02L435.16 451.92L434.01 452.79L432.9 453.61L431.83 454.39L430.82 455.13L429.85 455.81L428.94 456.43L428.1 456.99L427.32 457.49L426.62 457.92L425.99 458.28L425.45 458.56L425 458.76L424.64 458.87L424 459.01L423.34 459.1L422.68 459.16L422.02 459.18L421.35 459.17L420.67 459.12L420 459.05L419.32 458.94L418.64 458.8L417.96 458.63L417.29 458.44L416.62 458.22L415.96 457.97L415.31 457.69L414.66 457.39L414.02 457.07L413.39 456.72L412.78 456.36L412.18 455.97L411.59 455.56L411.02 455.13L410.46 454.69L409.93 454.23L409.41 453.75L408.92 453.26L408.45 452.76L408 452.24L407.57 451.71L407.18 451.17L406.81 450.61L406.47 450.05L406.16 449.48L405.88 448.91L405.64 448.33L405.43 447.74L405.25 447.15L405.11 446.55L405.01 445.95L404.95 445.35L404.93 444.75L404.93 444.41L404.92 444.09L404.91 443.78L404.9 443.49L404.88 443.22L404.86 442.96L404.83 442.72L404.79 442.5L404.75 442.29L404.71 442.11L404.66 441.93L404.6 441.78L404.53 441.64L404.46 441.52L404.38 441.41L404.29 441.33L404.2 441.25L404.09 441.2L403.98 441.16L403.86 441.14L403.73 441.14L403.59 441.15L403.45 441.18L403.29 441.23L403.12 441.29L402.94 441.37L402.75 441.46L402.55 441.58L402.34 441.71L402.12 441.85L401.88 442.01L401.64 442.19L401.38 442.39L401.11 442.6L400.82 442.83L400.53 443.08L400.22 443.34L399.89 443.62L399.55 443.91L399.2 444.22L395.47 447.55L401.6 454.74L401.85 455.04L402.11 455.34L402.37 455.64L402.64 455.94L402.91 456.24L403.18 456.54L403.46 456.84L403.74 457.13L404.02 457.43L404.31 457.72L404.6 458.01L404.89 458.29L405.18 458.58L405.47 458.86L405.76 459.13L406.05 459.41L406.34 459.68L406.63 459.94L406.92 460.2L407.21 460.46L407.5 460.71L407.78 460.95L408.06 461.19L408.34 461.42L408.62 461.65L408.89 461.86L409.16 462.08L409.42 462.28L409.68 462.48L409.93 462.67L410.18 462.85L410.43 463.02L410.66 463.19L410.89 463.34L411.12 463.49L411.33 463.62L411.54 463.75L411.74 463.87L411.94 463.97L412.12 464.07L412.56 464.27L413.01 464.47L413.47 464.65L413.93 464.82L414.4 464.98L414.88 465.13L415.36 465.27L415.84 465.4L416.33 465.51L416.82 465.62L417.32 465.71L417.82 465.8L418.32 465.87L418.82 465.93L419.33 465.99L419.83 466.03L420.34 466.06L420.85 466.08L421.35 466.09L421.86 466.08L422.37 466.07L422.87 466.05L423.38 466.01L423.88 465.97L424.38 465.91L424.87 465.85L425.37 465.77L425.86 465.68L426.34 465.58L426.82 465.47L427.3 465.35L427.77 465.22L428.24 465.08L428.7 464.93L429.15 464.77L429.6 464.6L430.03 464.41L430.46 464.22L430.89 464.02L431.3 463.8L431.84 463.5L432.45 463.12L433.12 462.68L433.86 462.17L434.66 461.61L435.52 460.99L436.42 460.32L437.37 459.6L438.37 458.83L439.4 458.03L440.47 457.19L441.56 456.31L442.69 455.4L443.83 454.46L445 453.5L446.17 452.53L447.36 451.53L448.55 450.52L449.74 449.51L450.93 448.48L452.11 447.46L453.28 446.44L454.44 445.42L455.57 444.41L456.69 443.41L457.77 442.43L458.82 441.47L459.84 440.53L460.81 439.62L461.74 438.74L462.62 437.89L463.45 437.08L464.22 436.31L464.93 435.59L465.57 434.91L466.15 434.28L466.65 433.71L467.07 433.2L467.41 432.75L467.67 432.37L467.9 431.96L468.12 431.53L468.33 431.08L468.53 430.62L468.72 430.14L468.9 429.64L469.06 429.14L469.21 428.61L469.36 428.08L469.49 427.53L469.6 426.98L469.71 426.41L469.81 425.84L469.89 425.25L469.96 424.67L470.02 424.07L470.07 423.47L470.11 422.87L470.13 422.27L470.15 421.66L470.15 421.05L470.14 420.45L470.12 419.84L470.08 419.24L470.04 418.64L469.98 418.04L469.91 417.45L469.83 416.86L469.74 416.29L469.63 415.72L469.52 415.15L469.39 414.6L469.25 414.06L469.09 413.53L468.93 413.01L468.75 412.51L468.57 412.02L468.37 411.55L468.16 411.09L467.93 410.66L467.82 410.46L467.67 410.23L467.5 409.96L467.29 409.66L467.06 409.33L466.8 408.96L466.51 408.57L466.2 408.14L465.86 407.69L465.5 407.2L465.11 406.7L464.7 406.16L464.27 405.6L463.82 405.01L463.34 404.4L462.85 403.77L462.33 403.12L461.8 402.44L461.24 401.75L460.67 401.03L460.08 400.3L459.48 399.55L458.86 398.78L458.23 398L457.58 397.2L456.92 396.39L456.24 395.56L455.55 394.72L454.85 393.87L454.15 393.01L453.43 392.14L452.7 391.26L451.96 390.37L451.22 389.48L450.46 388.58L449.71 387.67L448.94 386.76L448.17 385.85L447.4 384.93L446.62 384.02L445.32 382.46L443.95 380.83L442.52 379.12L441.02 377.32L439.44 375.44L437.79 373.47L436.07 371.42L434.26 369.27L432.37 367.02L430.4 364.67L428.35 362.23L426.2 359.68L423.97 357.02L421.64 354.25L419.22 351.37L416.7 348.37L414.08 345.26L411.35 342.02L408.53 338.67L405.59 335.18L402.55 331.57L399.4 327.82L396.13 323.94L392.75 319.92L389.25 315.76L385.63 311.46L381.89 307.02L378.02 302.42L374.02 297.68L369.9 292.78L365.64 287.72L361.25 282.5L356.72 277.12L352.05 271.58L347.25 265.87L342.3 259.99L337.2 253.93L331.95 247.7L326.56 241.29L321.01 234.7L319.95 233.43L318.89 232.17L317.84 230.92L316.81 229.69L315.78 228.48L314.77 227.28L313.76 226.1L312.78 224.94L311.8 223.8L310.85 222.68L309.9 221.58L308.98 220.51L308.07 219.46L307.19 218.43L306.32 217.44L305.47 216.46L304.65 215.52L303.85 214.61L303.07 213.72L302.31 212.87L301.59 212.05L300.88 211.26L300.21 210.51L299.56 209.79L298.94 209.11L298.35 208.47L297.79 207.86L297.26 207.29L296.77 206.77L296.31 206.28L295.88 205.84L295.48 205.44L295.13 205.09L294.81 204.78L294.52 204.51L294.28 204.3L294.08 204.13L293.91 204.01L293.79 203.95L293.71 203.93L293.49 204.02L293.07 204.29ZM387 415.11L386.02 415.96L385.07 416.79L384.15 417.6L383.26 418.38L382.42 419.14L381.63 419.86L380.88 420.55L380.19 421.2L379.55 421.8L378.97 422.36L378.46 422.87L378.02 423.32L377.65 423.71L377.35 424.05L377.13 424.32L377 424.52L376.96 424.64L377.05 424.92L377.32 425.4L377.74 426.04L378.3 426.83L378.98 427.74L379.75 428.75L380.59 429.82L381.5 430.95L382.43 432.1L383.39 433.25L384.34 434.38L385.26 435.46L386.15 436.46L386.97 437.37L387.7 438.16L388.33 438.8L388.84 439.28L389.21 439.56L389.34 439.61L389.52 439.61L389.73 439.58L389.99 439.51L390.27 439.4L390.6 439.26L390.95 439.09L391.33 438.89L391.74 438.66L392.17 438.4L392.63 438.12L393.11 437.81L393.6 437.48L394.11 437.13L394.64 436.77L395.17 436.38L395.72 435.98L396.27 435.56L396.96 435.02L397.59 434.49L398.18 433.98L398.73 433.49L399.23 433.01L399.68 432.54L400.1 432.09L400.47 431.65L400.8 431.22L401.09 430.8L401.34 430.38L401.56 429.97L401.74 429.56L401.88 429.16L401.99 428.77L402.07 428.37L402.12 427.97L402.13 427.57L402.12 427.22L402.1 426.81L402.07 426.33L402.02 425.79L401.96 425.19L401.89 424.54L401.82 423.85L401.73 423.12L401.63 422.34L401.53 421.54L401.42 420.71L401.3 419.86L401.18 418.98L401.06 418.1L400.93 417.21L400.8 416.31L400.67 415.41L400.53 414.52L398.93 404.93L388.01 414.25L387 415.11Z" id="a1oEVah8ar"></path></defs><g><g><g><use xlink:href="#bbmaAsSdy" opacity="1" fill="#00e0c2" fill-opacity="1"></use><g><use xlink:href="#bbmaAsSdy" opacity="1" fill-opacity="0" stroke="#000000" stroke-width="1" stroke-opacity="0"></use></g></g><g><use xlink:href="#a1oEVah8ar" opacity="1" fill="#00e0c2" fill-opacity="1"></use><g><use xlink:href="#a1oEVah8ar" opacity="1" fill-opacity="0" stroke="#000000" stroke-width="1" stroke-opacity="0"></use></g></g></g></g></svg>