<?xml version="1.0" encoding="UTF-8" standalone="no"?>
<!DOCTYPE svg PUBLIC "-//W3C//DTD SVG 1.1//EN" "http://www.w3.org/Graphics/SVG/1.1/DTD/svg11.dtd">
<svg version="1.1" xmlns="http://www.w3.org/2000/svg" xmlns:xlink="http://www.w3.org/1999/xlink" preserveAspectRatio="xMidYMid meet" viewBox="0 0 640 640" width="640" height="640"><defs><path d="M345.43 11.03L357.94 12.3L370.29 14.06L382.49 16.3L394.51 19.01L406.35 22.18L418 25.8L429.45 29.86L440.68 34.36L451.7 39.27L462.48 44.59L473.02 50.32L483.31 56.44L493.34 62.93L503.1 69.8L512.58 77.03L521.76 84.61L530.65 92.53L539.22 100.78L547.47 109.35L555.39 118.24L562.97 127.42L570.2 136.9L577.07 146.66L583.56 156.69L589.68 166.98L595.41 177.52L600.73 188.3L605.64 199.32L610.14 210.55L614.2 222L617.82 233.65L620.99 245.49L623.7 257.51L625.94 269.71L627.7 282.06L628.97 294.57L629.74 307.22L630 320L629.74 332.78L628.97 345.43L627.7 357.94L625.94 370.29L623.7 382.49L620.99 394.51L617.82 406.35L614.2 418L610.14 429.45L605.64 440.68L600.73 451.7L595.41 462.48L589.68 473.02L583.56 483.31L577.07 493.34L570.2 503.1L562.97 512.58L555.39 521.76L547.47 530.65L539.22 539.22L530.65 547.47L521.76 555.39L512.58 562.97L503.1 570.2L493.34 577.07L483.31 583.56L473.02 589.68L462.48 595.41L451.7 600.73L440.68 605.64L429.45 610.14L418 614.2L406.35 617.82L394.51 620.99L382.49 623.7L370.29 625.94L357.94 627.7L345.43 628.97L332.78 629.74L320 630L307.22 629.74L294.57 628.97L282.06 627.7L269.71 625.94L257.51 623.7L245.49 620.99L233.65 617.82L222 614.2L210.55 610.14L199.32 605.64L188.3 600.73L177.52 595.41L166.98 589.68L156.69 583.56L146.66 577.07L136.9 570.2L127.42 562.97L118.24 555.39L109.35 547.47L100.78 539.22L92.53 530.65L84.61 521.76L77.03 512.58L69.8 503.1L62.93 493.34L56.44 483.31L50.32 473.02L44.59 462.48L39.27 451.7L34.36 440.68L29.86 429.45L25.8 418L22.18 406.35L19.01 394.51L16.3 382.49L14.06 370.29L12.3 357.94L11.03 345.43L10.26 332.78L10 320L10.26 307.22L11.03 294.57L12.3 282.06L14.06 269.71L16.3 257.51L19.01 245.49L22.18 233.65L25.8 222L29.86 210.55L34.36 199.32L39.27 188.3L44.59 177.52L50.32 166.98L56.44 156.69L62.93 146.66L69.8 136.9L77.03 127.42L84.61 118.24L92.53 109.35L100.78 100.78L109.35 92.53L118.24 84.61L127.42 77.03L136.9 69.8L146.66 62.93L156.69 56.44L166.98 50.32L177.52 44.59L188.3 39.27L199.32 34.36L210.55 29.86L222 25.8L233.65 22.18L245.49 19.01L257.51 16.3L269.71 14.06L282.06 12.3L294.57 11.03L307.22 10.26L320 10L332.78 10.26L345.43 11.03ZM317.7 168.9L316.55 169.01L315.4 169.17L314.26 169.36L313.13 169.61L312.01 169.89L310.89 170.22L309.79 170.6L308.7 171.02L307.62 171.48L306.55 171.99L305.51 172.54L304.48 173.13L303.47 173.77L302.48 174.45L301.51 175.18L300.57 175.95L299.64 176.77L298.75 177.63L129.38 347L128.52 347.89L127.7 348.82L126.93 349.76L126.2 350.73L125.52 351.72L124.88 352.73L124.29 353.76L123.74 354.8L123.23 355.87L122.77 356.94L122.35 358.03L121.97 359.14L121.64 360.25L121.36 361.37L121.11 362.51L120.92 363.64L120.76 364.79L120.65 365.93L120.58 367.08L120.56 368.23L120.58 369.38L120.65 370.53L120.76 371.68L120.92 372.82L121.11 373.96L121.36 375.09L121.64 376.21L121.97 377.32L122.35 378.42L122.77 379.5L123.23 380.57L123.74 381.63L124.29 382.67L124.88 383.7L125.52 384.7L126.2 385.68L126.93 386.64L127.7 387.58L128.52 388.49L129.38 389.38L150.63 410.63L151.52 411.48L152.44 412.3L153.38 413.07L154.35 413.8L155.34 414.48L156.35 415.12L157.38 415.71L158.43 416.27L159.49 416.77L160.57 417.23L161.66 417.65L162.76 418.03L163.88 418.36L165 418.64L166.13 418.89L167.27 419.09L168.41 419.24L169.56 419.35L170.71 419.42L171.86 419.44L173.01 419.42L174.16 419.35L175.3 419.24L176.45 419.09L177.58 418.89L178.71 418.64L179.83 418.36L180.94 418.03L182.04 417.65L183.13 417.23L184.2 416.77L185.26 416.27L186.3 415.71L187.32 415.12L188.32 414.48L189.31 413.8L190.27 413.07L191.2 412.3L192.11 411.48L193 410.63L199.1 404.53L202.14 401.48L205.7 397.92L225 378.62L237.7 365.92L244.82 358.81L260.56 343.06L278.34 325.28L288 315.63L298.16 305.47L320 283.63L395.18 358.81L402.3 365.92L408.9 372.53L415 378.62L420.58 384.21L437.86 401.48L440.9 404.53L447 410.63L447.89 411.48L448.82 412.3L449.76 413.07L450.73 413.8L451.72 414.48L452.73 415.12L453.76 415.71L454.8 416.27L455.87 416.77L456.94 417.23L458.03 417.65L459.14 418.03L460.25 418.36L461.37 418.64L462.51 418.89L463.64 419.09L464.79 419.24L465.93 419.35L467.08 419.42L468.23 419.44L469.38 419.42L470.53 419.35L471.68 419.24L472.82 419.09L473.96 418.89L475.09 418.64L476.21 418.36L477.32 418.03L478.42 417.65L479.5 417.23L480.57 416.77L481.63 416.27L482.67 415.71L483.7 415.12L484.7 414.48L485.68 413.8L486.64 413.07L487.58 412.3L488.49 411.48L489.38 410.63L510.63 389.38L511.48 388.48L512.3 387.56L513.07 386.62L513.8 385.65L514.48 384.66L515.12 383.65L515.71 382.62L516.27 381.57L516.77 380.51L517.23 379.43L517.65 378.34L518.03 377.24L518.36 376.12L518.64 375L518.89 373.87L519.09 372.73L519.24 371.59L519.35 370.44L519.42 369.29L519.44 368.14L519.42 366.99L519.35 365.84L519.24 364.7L519.09 363.55L518.89 362.42L518.64 361.29L518.36 360.17L518.03 359.06L517.65 357.96L517.23 356.87L516.77 355.8L516.27 354.74L515.71 353.7L515.12 352.68L514.48 351.68L513.8 350.69L513.07 349.73L512.3 348.8L511.48 347.89L510.63 347L341.25 177.63L340.36 176.77L339.43 175.95L338.49 175.18L337.52 174.45L336.53 173.77L335.52 173.13L334.49 172.54L333.45 171.99L332.38 171.48L331.3 171.02L330.21 170.6L329.11 170.22L327.99 169.89L326.87 169.61L325.74 169.36L324.6 169.17L323.45 169.01L322.3 168.9L321.15 168.83L320 168.81L318.85 168.83L317.7 168.9Z" id="g42Ng2mnWl"></path></defs><g><g><g><use xlink:href="#g42Ng2mnWl" opacity="1" fill="#73dfc2" fill-opacity="1"></use><g><use xlink:href="#g42Ng2mnWl" opacity="1" fill-opacity="0" stroke="#000000" stroke-width="1" stroke-opacity="0"></use></g></g></g></g></svg>