<?xml version="1.0" encoding="UTF-8" standalone="no"?>
<!DOCTYPE svg PUBLIC "-//W3C//DTD SVG 1.1//EN" "http://www.w3.org/Graphics/SVG/1.1/DTD/svg11.dtd">
<svg version="1.1" xmlns="http://www.w3.org/2000/svg" xmlns:xlink="http://www.w3.org/1999/xlink" preserveAspectRatio="xMidYMid meet" viewBox="0 0 640 640" width="50" height="50"><defs><path d="M585.78 142.22C579.23 142.22 526.88 142.22 520.33 142.22C503.67 142.22 496 151 491.89 160.78C491.89 160.78 458.56 242 411.44 294.67C396.22 309.89 389.22 314.78 380.89 314.78C376.78 314.78 370.44 309.89 370.44 296C370.44 283.03 370.44 179.3 370.44 166.33C370.44 149.67 365.78 142.22 352 142.22C341.71 142.22 259.4 142.22 249.11 142.22C238.67 142.22 232.44 150 232.44 157.22C232.44 173 256 176.67 258.44 221.11C258.44 230.76 258.44 307.91 258.44 317.56C258.44 338.67 254.67 342.56 246.33 342.56C224.11 342.56 170.11 261 138.11 167.67C131.67 149.56 125.33 142.22 108.56 142.22C102.01 142.22 49.66 142.22 43.11 142.22C24.44 142.22 20.67 151 20.67 160.78C20.67 178.11 42.89 264.22 124.11 378C178.22 455.67 254.44 497.78 323.78 497.78C365.44 497.78 370.56 488.44 370.56 472.33C370.56 398.11 366.78 391.11 387.67 391.11C397.33 391.11 414 396 452.89 433.44C497.33 477.89 504.67 497.78 529.56 497.78C536.1 497.78 588.46 497.78 595 497.78C613.67 497.78 623.11 488.44 617.67 470C605.22 431.22 521.11 351.44 517.33 346.11C507.67 333.67 510.44 328.11 517.33 317C517.44 316.89 597.33 204.44 605.56 166.33C609.67 152.44 605.56 142.22 585.78 142.22Z" id="bla5TmQJl"></path></defs><g><g><g><use xlink:href="#bla5TmQJl" opacity="1" fill="#ffffff" fill-opacity="1"></use><g><use xlink:href="#bla5TmQJl" opacity="1" fill-opacity="0" stroke="#000000" stroke-width="1" stroke-opacity="0"></use></g></g></g></g></svg>